<?xml version="1.0" encoding="UTF-8" standalone="no"?>
<svg
   width="324.14249"
   height="116.08734"
   viewBox="0 0 324.14249 116.08734"
   fill="none"
   version="1.1"
   id="svg6"
   xml:space="preserve"
   sodipodi:docname="splastik-logo.svg"
   inkscape:version="1.4-rc1 (61ec3f2, 2024-09-26)"
   xmlns:inkscape="http://www.inkscape.org/namespaces/inkscape"
   xmlns:sodipodi="http://sodipodi.sourceforge.net/DTD/sodipodi-0.dtd"
   xmlns="http://www.w3.org/2000/svg"
   xmlns:svg="http://www.w3.org/2000/svg"><sodipodi:namedview
     id="namedview1"
     pagecolor="#505050"
     bordercolor="#eeeeee"
     borderopacity="1"
     inkscape:showpageshadow="0"
     inkscape:pageopacity="0"
     inkscape:pagecheckerboard="0"
     inkscape:deskcolor="#505050"
     inkscape:zoom="5.1335449"
     inkscape:cx="302.3252"
     inkscape:cy="238.23694"
     inkscape:window-width="1080"
     inkscape:window-height="1897"
     inkscape:window-x="-8"
     inkscape:window-y="-8"
     inkscape:window-maximized="1"
     inkscape:current-layer="svg6" /><defs
     id="defs6" /><path
     d="m 202.81077,40.00705 c 0,1.80709 -0.5476,3.47731 -1.64281,5.0106 h -13.47113 c 0.43809,-0.32856 0.65712,-0.87617 0.65712,-1.64282 0,-0.76665 -0.43807,-1.36902 -1.31425,-1.80711 -0.87617,-0.49284 -1.99877,-0.73927 -3.36778,-0.73927 -4.10706,0 -6.16057,1.25951 -6.16057,3.77849 0,0.98569 0.76664,1.69758 2.29995,2.13567 1.53329,0.43809 3.39516,0.79404 5.58558,1.06784 2.19044,0.2738 4.38086,0.68451 6.57129,1.23211 2.19042,0.49285 4.05229,1.50593 5.58558,3.03922 1.5333,1.53331 2.29995,3.58682 2.29995,6.16058 0,4.54513 -1.83447,7.99506 -5.50344,10.34976 -3.61422,2.35471 -8.89862,3.53208 -15.85322,3.53208 -6.95462,0 -11.82831,-1.1226 -14.62111,-3.36778 -2.19042,-1.75235 -3.28563,-4.16182 -3.28563,-7.22842 0,-0.87617 0.0821,-1.77973 0.24641,-2.71066 l 13.71755,-0.16425 c 0,0.91011 0.61971,1.65253 1.31426,2.05352 1.04047,0.54762 2.54638,0.82142 4.51776,0.82142 1.97138,0 3.39516,-0.19167 4.27133,-0.57498 0.87618,-0.43809 1.31427,-1.23213 1.31427,-2.38209 0,-0.76666 -0.76665,-1.28687 -2.29996,-1.56069 -1.53329,-0.32855 -3.42255,-0.60237 -5.66773,-0.8214 -2.19042,-0.21906 -4.40824,-0.57498 -6.65342,-1.06784 -2.19044,-0.49284 -4.05229,-1.53329 -5.58558,-3.12135 -1.53331,-1.58807 -2.29995,-3.66898 -2.29995,-6.24272 0,-4.98322 1.91662,-8.81648 5.74986,-11.49975 3.88802,-2.68327 9.4736,-4.02491 16.75678,-4.02491 11.22593,0 16.83889,3.25827 16.83889,9.77478 z"
     style="fill:#ffffff;fill-opacity:1;stroke:none;stroke-width:3.42255"
     id="path2" /><path
     d="m 110.21192,58.11979 c 0,1.42378 0.71189,2.13567 2.13566,2.13567 1.47854,0 2.71065,-0.2738 3.69634,-0.8214 l -0.25681,9.20095 c -2.6285,2.13567 -5.73948,3.28447 -9.02512,3.28447 -4.98321,0 -8.21409,-1.14996 -9.69263,-3.44993 -0.93093,-1.47853 -1.3964,-3.09396 -1.3964,-4.84631 0,-1.75234 0.10956,-3.28563 0.32856,-4.59989 L 104.9549,8.42444 h 13.96397 l -8.6248,48.70966 c -0.0547,0.32856 -0.0821,0.65712 -0.0821,0.98569 z"
     fill="#ffffff"
     id="path6"
     style="fill:#ffffff;fill-opacity:1;stroke:none;stroke-width:3.42255" /><path
     d="m 250.94103,-2.4473504e-6 c -4.72106,0 -8.54968,3.8287535473504 -8.54968,8.5496722473504 0,1.0881085 0.21754,2.1244032 0.58825,3.0816232 2.3175,7.842554 11.71989,14.566577 15.03379,16.310555 3.27872,-1.725937 12.51428,-8.326875 14.95357,-16.063222 0.0664,-0.210623 0.13019,-0.422444 0.18718,-0.635042 -0.0462,0.173865 -0.0943,0.348979 -0.14707,0.521404 0.4036,-0.992952 0.63504,-2.0774323 0.63504,-3.2153182 0,-4.7209529 -3.82861,-8.5496722473504 -8.54967,-8.5496722473504 -2.94206,0 -5.54129,1.4874609473504 -7.07905,3.7500905473504 C 256.47552,1.4875143 253.88305,-2.4473504e-6 250.94103,-2.4473504e-6 Z"
     style="fill:#ff0000;stroke-width:3.42254"
     id="path8" /><path
     d="m 261.24482,60.491425 c 1.25949,0 3.35725,-0.2738 4.57511,-0.728547 l -1.61804,9.18904 c -2.57375,2.13569 -5.50344,3.203526 -8.78908,3.203526 -4.98321,0 -8.21411,-1.149981 -9.69265,-3.449963 -0.98569,-1.533255 -1.47853,-3.148692 -1.47853,-4.846274 0,-1.752381 0.10956,-3.285637 0.32857,-4.599945 l 4.92845,-27.763623 h 13.96398 l -4.59991,25.874422 c -0.0547,0.328563 -0.0821,0.629745 -0.0821,0.903545 0,1.478546 0.8214,2.217819 2.46422,2.217819 z"
     fill="#ffffff"
     id="path9"
     style="fill:#ffffff;fill-opacity:1;stroke:none;stroke-width:3.42255" /><path
     d="m 16.25641,54.44038 c -0.20056,3.67144 2.33278,5.50712 7.60045,5.50712 5.32088,0 8.07138,-1.64946 8.25174,-4.94842 0.0958,-1.75585 -0.73002,-3.19252 -2.47795,-4.3099 C 27.88262,49.57179 25.72539,48.64065 23.15886,47.89574 20.64558,47.15079 18.1115,46.29946 15.5566,45.3417 13.05784,44.33075 10.96064,42.78769 9.26497,40.71253 7.57226,38.5842 6.81167,35.95035 6.98331,32.81106 7.71338,19.45561 16.67163,12.77791 33.85797,12.77791 c 6.27866,0 10.94879,1.1972 14.01041,3.5916 3.11774,2.34118 5.01282,5.66268 4.33195,9.81703 -0.48671,2.96971 -0.92011,5.42674 -1.44109,8.38038 H 36.30387 c 0.26554,-1.50541 0.5085,-2.88284 0.84615,-4.62916 0.65748,-3.40074 -1.97779,-5.18787 -6.50044,-5.18787 -5.69334,0 -8.63891,1.80913 -8.83671,5.42731 -0.0989,1.80913 0.72712,3.24574 2.47806,4.3099 1.75092,1.06417 3.88593,1.91554 6.40506,2.55404 2.57512,0.58529 5.14165,1.3302 7.69941,2.23476 2.55778,0.90454 4.68303,2.421 6.3758,4.54934 1.69565,2.07516 2.45186,4.78879 2.26861,8.14096 -0.36941,6.75751 -2.66622,11.78572 -6.89042,15.08469 -4.22131,3.24572 -10.53545,4.86859 -18.94233,4.86859 -8.40697,0 -14.07206,-1.48986 -16.99529,-4.46953 C 2.04595,65.21517 0.65079,62.08346 1.2859,58.19163 1.65199,55.94841 1.97375,54.12415 2.34032,52.04602 h 14.36636 c -0.14497,0.82162 -0.36707,1.58319 -0.45006,2.39436 z"
     style="fill:#ffffff;fill-opacity:1;stroke:none;stroke-width:3.32555"
     id="path18" /><path
     d="M 74.87533,53.94055 H 65.10055 L 61.89706,71.92943 H 47.11168 L 57.54359,12.78786 h 25.05302 c 6.18794,0 10.59618,1.42378 13.22469,4.27134 1.91662,2.19042 2.87493,4.98326 2.87493,8.37842 0,1.14997 -0.10956,2.35471 -0.32857,3.6142 l -1.6428,9.28193 c -0.82141,4.54515 -3.23089,8.29626 -7.22842,11.25333 -3.99752,2.90231 -8.87123,4.35347 -14.62111,4.35347 z m 2.54639,-28.33866 h -7.3927 l -2.71065,15.52466 h 7.31055 c 4.49038,0 7.09151,-1.99876 7.8034,-5.99629 l 0.57498,-3.36778 c 0.10956,-0.49286 0.16425,-1.14999 0.16425,-1.97139 0,-0.82141 -0.41071,-1.72496 -1.23212,-2.71065 -0.8214,-0.98569 -2.32733,-1.47855 -4.51775,-1.47855 z"
     style="fill:#ffffff;fill-opacity:1;stroke:none;stroke-width:3.42255"
     id="path19" /><path
     d="m 324.14246,13.02511 -18.80571,29.81157 8.37681,29.31878 H 298.10971 L 291.9503,50.47434 h -6.48791 l -3.85987,21.68112 h -14.78261 l 10.42995,-59.13035 h 14.78258 l -4.35265,24.63765 h 5.25602 l 15.60383,-24.63765 z"
     style="fill:#ffffff;fill-opacity:1;stroke:none;stroke-width:3.42189"
     id="path20" /><path
     d="m 219.62492,72.1242 c -6.34289,0 -10.90869,-1.4217 -13.69738,-4.26506 -2.07787,-2.07787 -3.11677,-4.86656 -3.11677,-8.36609 0,-1.14828 0.10957,-2.37858 0.32821,-3.69089 l 5.57737,-31.74186 15.00972,-6.23358 -2.37857,13.69743 h 17.1703 l -2.05051,11.56488 h -17.17031 l -1.6404,9.26826 c -0.2187,1.03894 -0.3282,1.96848 -0.3282,2.7887 0,3.44486 1.64037,5.16728 4.92119,5.16728 1.74975,0 3.19879,-0.73819 4.34709,-2.21455 1.20295,-1.47638 2.02315,-3.44486 2.46059,-5.90545 h 13.61535 c -2.29655,13.28726 -9.9791,19.93089 -23.04768,19.93089 z"
     style="fill:#ffffff;fill-opacity:1;stroke:none;stroke-width:3.4175"
     id="path21" /><path
     d="m 159.33091,58.80915 c 1.47855,0 2.71066,0.56586 3.69635,0.0182 l -0.19833,9.77896 c -2.62853,2.13565 -5.86422,3.43568 -9.14985,3.43568 -6.02368,0 -9.36408,-2.19044 -10.0212,-6.57129 -2.73804,4.38085 -6.76295,6.57129 -12.07473,6.57129 -8.98075,0 -13.47113,-3.86064 -13.47113,-11.5819 0,-1.31425 0.13682,-2.7654 0.41071,-4.35347 l 1.72494,-9.61049 c 0.87618,-4.92847 2.87495,-8.84386 5.99629,-11.74618 3.17613,-2.95706 7.28319,-4.43561 12.32117,-4.43561 5.09275,0 8.54267,1.17737 10.34976,3.53206 l 0.41071,-2.46422 h 12.48544 l -4.53362,24.30554 c -0.0547,0.32856 -0.0545,0.65829 -0.0821,0.98569 -0.0782,0.92565 0.0526,2.13567 2.13562,2.13567 z M 132.81522,54.2996 c -0.10956,0.49283 -0.16425,1.17734 -0.16425,2.0535 0,0.87619 0.41069,1.75235 1.2321,2.62853 0.82141,0.8214 2.19042,1.23211 4.10706,1.23211 1.97138,0 3.66896,-0.76665 5.09273,-2.29994 l 2.46423,-13.7997 c -0.60236,-1.36902 -2.02614,-2.05352 -4.27132,-2.05352 -4.21659,0 -6.6808,2.02614 -7.3927,6.07843 z"
     style="fill:#ffffff;fill-opacity:1;stroke:none;stroke-width:3.42255"
     id="path22" /><path
     d="m 15.840953,97.734057 q -0.506342,2.840373 -2.850157,4.476193 -2.343817,1.63582 -6.002098,1.63582 -3.8664764,0 -5.7952473,-1.02611 l 0.4665771,-2.61731 q 1.2769679,0.59485 2.851812,0.93688 1.589714,0.34204 3.0173351,0.34204 2.4388543,0 3.8401671,-0.93689 1.401311,-0.936869 1.692921,-2.572686 0.193523,-1.085587 -0.128012,-1.784528 Q 12.612716,95.488527 11.665562,94.878813 10.733279,94.2691 8.7445693,93.495805 5.9219186,92.395346 4.893236,90.90824 3.8672045,89.406263 4.2887139,87.041764 q 0.4533212,-2.542951 2.6245689,-4.044928 2.1861173,-1.501977 5.3090402,-1.501977 3.256763,0 5.775655,1.219427 l -1.266509,2.349627 q -2.58898,-1.159943 -4.998092,-1.159943 -1.9332381,0 -3.1821531,0.83278 -1.2340432,0.832779 -1.5017944,2.334756 -0.1908721,1.070717 0.09827,1.784528 0.3066635,0.698939 1.1401516,1.278911 0.8483586,0.579972 2.7382729,1.323525 2.264922,0.892263 3.3035,1.739914 1.041229,0.832779 1.410155,1.933237 0.371577,1.085588 0.101174,2.602436 z m 20.005568,-9.53235 q -0.593825,3.331118 -3.187218,5.115645 -2.59074,1.769657 -6.724896,1.769657 H 23.43607 l -1.508421,8.461631 h -2.736275 l 3.875765,-21.741489 h 5.7551 q 8.164213,0 7.024282,6.394556 z m -11.991593,4.535674 h 2.186046 q 3.241891,0 4.884825,-1.040975 1.645585,-1.055845 2.059141,-3.37573 0.373792,-2.09682 -0.793905,-3.137794 -1.167697,-1.040974 -4.037811,-1.040974 h -2.766017 z m 25.91135,10.811259 H 37.616621 l 3.875765,-21.741489 h 12.149657 l -0.429463,2.409112 h -9.413382 l -1.208857,6.781203 h 8.863153 l -0.42416,2.37937 h -8.863153 l -1.383823,7.762694 h 9.413383 z M 67.366014,83.90397 q -3.509569,0 -5.93602,2.349628 -2.426453,2.349628 -3.152827,6.424298 -0.750234,4.208511 0.789621,6.498654 1.542506,2.27527 5.141303,2.27527 2.319886,0 5.373499,-0.86252 l -0.42416,2.37937 q -1.473142,0.50562 -2.783866,0.68407 -1.313374,0.19333 -2.978933,0.19333 -4.803352,0 -6.886191,-2.91474 -2.065317,-2.929594 -1.110957,-8.283176 0.599127,-3.36086 2.284095,-5.88894 1.69984,-2.52808 4.30823,-3.896218 2.623262,-1.368137 5.835411,-1.368137 3.450086,0 5.779922,1.278911 l -1.514014,2.319886 Q 69.700771,83.90397 67.366014,83.90397 Z m 12.543902,19.64467 h -7.85192 l 0.281007,-1.57633 2.66121,-0.57997 3.101673,-17.399143 -2.449131,-0.609714 0.281006,-1.576332 h 7.85192 l -0.281006,1.576332 -2.666514,0.609714 -3.101672,17.399143 2.454434,0.57997 z m 17.845275,0 -1.416406,-6.736589 h -8.625211 l -3.788476,6.736589 H 81.159083 L 93.542127,81.717924 h 2.468595 l 4.584838,21.830716 z M 95.95299,94.388068 94.688528,87.800189 94.228125,84.543426 q -0.764258,1.784528 -1.517444,3.256763 l -3.642988,6.587879 z m 7.63166,9.160572 3.87576,-21.741489 h 2.73628 l -3.441,19.302639 h 9.50261 l -0.43477,2.43885 z m 40.5232,-15.346933 q -0.59383,3.331118 -3.18723,5.115645 -2.59073,1.769657 -6.72489,1.769657 h -2.49834 l -1.50842,8.461631 h -2.73628 l 3.87577,-21.741489 h 5.75511 q 8.16421,0 7.02428,6.394556 z m -11.9916,4.535674 h 2.18605 q 3.24189,0 4.88483,-1.040975 1.64558,-1.055845 2.05914,-3.37573 0.37379,-2.09682 -0.79391,-3.137794 -1.1677,-1.040974 -4.03782,-1.040974 h -2.76601 z m 13.76169,10.811259 3.87577,-21.741489 h 2.73628 l -3.441,19.302639 h 9.5026 l -0.43476,2.43885 z m 29.59341,0 -1.4164,-6.736589 h -8.62522 l -3.78846,6.736589 h -2.76602 L 171.2583,81.717924 h 2.46859 l 4.58483,21.830716 z m -1.80219,-9.160572 -1.26446,-6.587879 -0.46041,-3.256763 q -0.76426,1.784528 -1.51744,3.256763 l -3.643,6.587879 z m 20.99629,3.345989 q -0.50634,2.840373 -2.85016,4.476193 -2.34381,1.63582 -6.0021,1.63582 -3.86647,0 -5.79524,-1.02611 l 0.46658,-2.61731 q 1.27696,0.59485 2.8518,0.93688 1.58972,0.34204 3.01734,0.34204 2.43885,0 3.84017,-0.93689 1.40131,-0.936869 1.69292,-2.572686 0.19352,-1.085587 -0.12801,-1.784528 -0.32153,-0.698939 -1.26869,-1.308653 -0.93229,-0.609713 -2.921,-1.383008 -2.82264,-1.100459 -3.85133,-2.587565 -1.02603,-1.501977 -0.60452,-3.866476 0.45332,-2.542951 2.62457,-4.044928 2.18612,-1.501977 5.30904,-1.501977 3.25676,0 5.77565,1.219427 l -1.2665,2.349627 q -2.58899,-1.159943 -4.99809,-1.159943 -1.93324,0 -3.18216,0.83278 -1.23405,0.832779 -1.5018,2.334756 -0.19087,1.070717 0.0983,1.784528 0.30667,0.698939 1.14016,1.278911 0.84835,0.579972 2.73827,1.323525 2.26493,0.892263 3.3035,1.739914 1.04123,0.832779 1.41016,1.933237 0.37157,1.085588 0.10117,2.602436 z m 10.23572,5.814583 h -2.75114 l 3.4463,-19.332377 h -6.79608 l 0.42947,-2.409112 h 16.29868 l -0.42946,2.409112 h -6.75147 z m 16.16486,0 h -7.85192 l 0.281,-1.57633 2.66121,-0.57997 3.10168,-17.399143 -2.44913,-0.609714 0.281,-1.576332 h 7.85192 l -0.281,1.576332 -2.66652,0.609714 -3.10167,17.399143 2.45444,0.57997 z m 17.01975,-19.64467 q -3.50956,0 -5.93602,2.349628 -2.42645,2.349628 -3.15283,6.424298 -0.75023,4.208511 0.78962,6.498654 1.54251,2.27527 5.14131,2.27527 2.31988,0 5.3735,-0.86252 l -0.42416,2.37937 q -1.47315,0.50562 -2.78386,0.68407 -1.31338,0.19333 -2.97894,0.19333 -4.80335,0 -6.8862,-2.91474 -2.06531,-2.929594 -1.11095,-8.283176 0.59913,-3.36086 2.2841,-5.88894 1.69983,-2.52808 4.30823,-3.896218 2.62326,-1.368137 5.83541,-1.368137 3.45008,0 5.77992,1.278911 l -1.51402,2.319886 q -2.39035,-1.189686 -4.72511,-1.189686 z m 30.24048,19.64467 h -3.22702 l -5.86768,-10.379999 -2.56308,1.94811 -1.50312,8.431889 h -2.73626 l 3.87576,-21.741489 h 2.73627 l -1.91137,10.722034 2.24225,-2.067077 9.2907,-8.654957 h 3.19728 l -10.29903,9.472866 z m 9.07134,0 h -7.85191 l 0.28101,-1.57633 2.66121,-0.57997 3.10167,-17.399143 -2.44913,-0.609714 0.28101,-1.576332 h 7.85191 l -0.28101,1.576332 -2.66651,0.609714 -3.10167,17.399143 2.45443,0.57997 z m 11.09381,0 h -2.75115 l 3.44631,-19.332377 h -6.79607 l 0.42946,-2.409112 h 16.29868 l -0.42947,2.409112 h -6.75146 z m 23.4175,-5.814583 q -0.50634,2.840373 -2.85016,4.476193 -2.34382,1.63582 -6.0021,1.63582 -3.86648,0 -5.79524,-1.02611 l 0.46658,-2.61731 q 1.27696,0.59485 2.8518,0.93688 1.58972,0.34204 3.01734,0.34204 2.43885,0 3.84017,-0.93689 1.4013,-0.936869 1.69291,-2.572686 0.19353,-1.085587 -0.128,-1.784528 -0.32154,-0.698939 -1.26869,-1.308653 -0.93229,-0.609713 -2.921,-1.383008 -2.82264,-1.100459 -3.85133,-2.587565 -1.02603,-1.501977 -0.60452,-3.866476 0.45332,-2.542951 2.62457,-4.044928 2.18612,-1.501977 5.30904,-1.501977 3.25676,0 5.77565,1.219427 l -1.2665,2.349627 q -2.58899,-1.159943 -4.9981,-1.159943 -1.93323,0 -3.18215,0.83278 -1.23405,0.832779 -1.5018,2.334756 -0.19087,1.070717 0.0983,1.784528 0.30667,0.698939 1.14016,1.278911 0.84835,0.579972 2.73827,1.323525 2.26492,0.892263 3.3035,1.739914 1.04123,0.832779 1.41015,1.933237 0.37158,1.085588 0.10118,2.602436 z"
     id="text22"
     style="font-size:30.1905px;font-family:'Alumni Sans';-inkscape-font-specification:'Alumni Sans, @wght=300';font-variation-settings:'wght' 300;fill:#ffffff;stroke-width:8.43649"
     aria-label="SPECIAL PLASTIC KITS" /></svg>
