<?xml version="1.0" encoding="UTF-8" standalone="no"?>
<svg
   width="329.36441"
   height="100.49271"
   viewBox="0 0 329.36441 100.49271"
   fill="none"
   version="1.1"
   id="svg6"
   xml:space="preserve"
   xmlns="http://www.w3.org/2000/svg"
   xmlns:svg="http://www.w3.org/2000/svg"><defs
     id="defs6" /><g
     id="g91"
     transform="translate(-352.75748,153.57766)"><path
       d="m 560.79026,-113.57061 c 0,1.8071 -0.5476,3.47731 -1.6429,5.01061 h -13.4711 c 0.4381,-0.32857 0.6571,-0.87617 0.6571,-1.64282 0,-0.76666 -0.438,-1.36902 -1.3142,-1.80711 -0.8762,-0.49284 -1.9988,-0.73927 -3.3678,-0.73927 -4.1071,0 -6.1606,1.2595 -6.1606,3.77849 0,0.98569 0.7667,1.69758 2.3,2.13567 1.5333,0.43809 3.3951,0.79404 5.5856,1.06784 2.1904,0.2738 4.3808,0.6845 6.5712,1.23211 2.1905,0.49285 4.0523,1.50592 5.5856,3.03921 1.5333,1.533314 2.3,3.586824 2.3,6.160594 0,4.54512 -1.8345,7.99505 -5.5035,10.34976 -3.6142,2.35471 -8.8986,3.53207 -15.8532,3.53207 -6.9546,0 -11.8283,-1.1226 -14.6211,-3.36778 -2.1904,-1.75234 -3.2856,-4.16182 -3.2856,-7.22842 0,-0.87616 0.082,-1.77972 0.2464,-2.71065 l 13.7175,-0.16426 c 0,0.91012 0.6197,1.65254 1.3143,2.05353 1.0405,0.54762 2.5464,0.82142 4.5178,0.82142 1.9713,0 3.3951,-0.19167 4.2713,-0.57498 0.8762,-0.43809 1.3143,-1.23213 1.3143,-2.38209 0,-0.76666 -0.7667,-1.28688 -2.3,-1.5607 -1.5333,-0.32854 -3.4226,-0.60236 -5.6677,-0.8214 -2.1905,-0.21905 -4.4083,-0.57498 -6.6535,-1.06783 -2.1904,-0.49284 -4.0522,-1.53329 -5.5855,-3.121354 -1.5333,-1.58807 -2.3,-3.66898 -2.3,-6.24273 0,-4.98322 1.9166,-8.81647 5.7499,-11.49974 3.888,-2.68328 9.4736,-4.02491 16.7568,-4.02491 11.2259,0 16.8388,3.25827 16.8388,9.77478 z"
       style="fill:#ffffff;fill-opacity:1;stroke:none;stroke-width:3.42255"
       id="path44" /><path
       d="m 468.19136,-95.457866 c 0,1.42379 0.7119,2.13568 2.1357,2.13568 1.4785,0 2.7106,-0.2738 3.6963,-0.8214 l -0.2568,9.20095 c -2.6285,2.13567 -5.7395,3.28447 -9.0251,3.28447 -4.9832,0 -8.2141,-1.14997 -9.6927,-3.44993 -0.9309,-1.47853 -1.3964,-3.09397 -1.3964,-4.84631 0,-1.75235 0.1096,-3.28564 0.3286,-4.59989 l 8.9534,-50.598924 h 13.964 l -8.6249,48.709664 c -0.055,0.32857 -0.082,0.65713 -0.082,0.98569 z"
       fill="#ffffff"
       id="path54"
       style="fill:#ffffff;fill-opacity:1;stroke:none;stroke-width:3.42255" /><g
       id="g57"
       transform="matrix(3.4225426,0,0,3.4225426,391.81404,-183.54441)"><path
         d="m 63.434256,8.755696 c -1.3794,0 -2.498047,1.1186869 -2.498047,2.498047 0,0.317924 0.06356,0.620709 0.171875,0.90039 0.677127,2.291441 3.424322,4.256069 4.392578,4.765625 0.957978,-0.504285 3.656429,-2.43295 4.369141,-4.693359 0.0194,-0.06154 0.03804,-0.12343 0.05469,-0.185547 -0.01351,0.0508 -0.02755,0.101965 -0.04297,0.152344 0.117924,-0.290121 0.185547,-0.606985 0.185547,-0.939453 0,-1.3793701 -1.118647,-2.498047 -2.498047,-2.498047 -0.859613,0 -1.619056,0.434607 -2.06836,1.0957031 C 65.051326,9.1903193 64.293857,8.755696 63.434256,8.755696 Z"
         style="fill:#ff0000"
         id="path57" /></g><path
       d="m 528.79624,259.89987 c 0.71158,0 1.89676,-0.15469 2.58482,-0.41161 l -0.91415,5.19157 c -1.4541,1.20661 -3.1093,1.80991 -4.9656,1.80991 -2.81539,0 -4.64076,-0.64971 -5.4761,-1.94914 -0.55689,-0.86625 -0.83533,-1.77893 -0.83533,-2.73802 0,-0.99005 0.0619,-1.8563 0.18563,-2.59885 l 2.78445,-15.68573 h 7.88929 l -2.59883,14.61838 c -0.0309,0.18563 -0.0464,0.35579 -0.0464,0.51048 0,0.83534 0.46407,1.25301 1.39222,1.25301 z"
       fill="#ffffff"
       id="path58"
       style="fill:#ffffff;fill-opacity:1;stroke:none;stroke-width:1.93365"
       transform="matrix(1.7699924,0,0,1.7699924,-316.74105,-553.10703)" /><path
       d="m 374.23586,-99.137266 c -0.2006,3.67144 2.3328,5.50712 7.6004,5.50712 5.3209,0 8.0714,-1.64946 8.2518,-4.94842 0.096,-1.755864 -0.73,-3.192524 -2.478,-4.309904 -1.748,-1.1174 -3.9052,-2.04854 -6.4718,-2.79344 -2.5132,-0.74495 -5.0473,-1.59628 -7.6022,-2.55404 -2.4988,-1.01095 -4.596,-2.55401 -6.2916,-4.62917 -1.6928,-2.12833 -2.4533,-4.76218 -2.2817,-7.90148 0.7301,-13.35544 9.6883,-20.03314 26.8747,-20.03314 6.2786,0 10.9487,1.1972 14.0104,3.59159 3.1177,2.34119 5.0128,5.66269 4.3319,9.81704 -0.4867,2.96971 -0.9201,5.42674 -1.4411,8.38038 h -14.4553 c 0.2655,-1.50541 0.5085,-2.88284 0.8461,-4.62917 0.6575,-3.40074 -1.9778,-5.18786 -6.5004,-5.18786 -5.6934,0 -8.6389,1.80912 -8.8367,5.42731 -0.099,1.80912 0.7271,3.24574 2.478,4.30989 1.7509,1.06418 3.8859,1.91554 6.4051,2.55405 2.5751,0.58528 5.1416,1.3302 7.6994,2.23476 2.5578,0.90453 4.683,2.42099 6.3758,4.54934 1.6956,2.07515 2.4518,4.78878 2.2686,8.14095 -0.3694,6.757524 -2.6662,11.785734 -6.8904,15.084694 -4.2213,3.24573 -10.5355,4.8686 -18.9424,4.8686 -8.4069,0 -14.072,-1.48986 -16.9952,-4.46953 -2.1659,-2.23478 -3.561,-5.3665 -2.9259,-9.25832 0.3661,-2.24322 0.6878,-4.06748 1.0544,-6.145614 h 14.3664 c -0.145,0.82161 -0.3671,1.583194 -0.4501,2.394364 z"
       style="fill:#ffffff;fill-opacity:1;stroke:none;stroke-width:3.32555"
       id="path74" /><path
       d="m 432.85476,-99.637096 h -9.7748 l -3.2035,17.98887 h -14.7853 l 10.4319,-59.141574 h 25.053 c 6.1879,0 10.5962,1.42379 13.2247,4.27135 1.9166,2.19042 2.8749,4.98325 2.8749,8.37842 0,1.14996 -0.1095,2.35471 -0.3286,3.6142 l -1.6428,9.28193 c -0.8214,4.54514 -3.2308,8.29625 -7.2284,11.25333 -3.9975,2.90231 -8.8712,4.353474 -14.6211,4.353474 z m 2.5464,-28.338664 h -7.3927 l -2.7106,15.52466 h 7.3105 c 4.4904,0 7.0915,-1.99877 7.8034,-5.99629 l 0.575,-3.36779 c 0.1095,-0.49285 0.1642,-1.14998 0.1642,-1.97138 0,-0.82142 -0.4107,-1.72496 -1.2321,-2.71065 -0.8214,-0.98569 -2.3273,-1.47855 -4.5177,-1.47855 z"
       style="fill:#ffffff;fill-opacity:1;stroke:none;stroke-width:3.42255"
       id="path75" /><path
       d="m 682.12186,-140.55255 -18.8057,29.81158 8.3768,29.318774 h -15.6038 l -6.1594,-21.681114 h -6.4879 l -3.8599,21.681114 h -14.7826 l 10.4299,-59.130354 h 14.7826 l -4.3526,24.63766 h 5.256 l 15.6038,-24.63766 z"
       style="fill:#ffffff;fill-opacity:1;stroke:none;stroke-width:3.42189"
       id="path76" /><path
       d="m 577.60436,-81.453456 c -6.3429,0 -10.9087,-1.42169 -13.6974,-4.26506 -2.0778,-2.07786 -3.1167,-4.86656 -3.1167,-8.36608 0,-1.14828 0.1095,-2.37859 0.3282,-3.69089 l 5.5773,-31.741864 15.0098,-6.23358 -2.3786,13.69742 h 17.1703 l -2.0505,11.56489 h -17.1703 l -1.6404,9.26826 c -0.2187,1.03893 -0.3282,1.968484 -0.3282,2.788694 0,3.44487 1.6403,5.16728 4.9212,5.16728 1.7497,0 3.1987,-0.73819 4.347,-2.21454 1.203,-1.47638 2.0232,-3.44486 2.4606,-5.905454 h 13.6154 c -2.2966,13.287264 -9.9791,19.930894 -23.0477,19.930894 z"
       style="fill:#ffffff;fill-opacity:1;stroke:none;stroke-width:3.4175"
       id="path77" /><path
       d="m 517.31036,-94.768506 c 1.4785,0 2.7106,0.56587 3.6963,0.0182 l -0.1983,9.77896 c -2.6285,2.13566 -5.8642,3.43568 -9.1498,3.43568 -6.0237,0 -9.3641,-2.19043 -10.0212,-6.57129 -2.7381,4.38086 -6.763,6.57129 -12.0748,6.57129 -8.9807,0 -13.4711,-3.86063 -13.4711,-11.58189 0,-1.31425 0.1368,-2.7654 0.4107,-4.35347 l 1.725,-9.610494 c 0.8761,-4.92848 2.8749,-8.84386 5.9962,-11.74619 3.1762,-2.95705 7.2832,-4.4356 12.3212,-4.4356 5.0928,0 8.5427,1.17737 10.3498,3.53206 l 0.4107,-2.46422 h 12.4854 l -4.5336,24.305534 c -0.055,0.32857 -0.055,0.6583 -0.082,0.98569 -0.078,0.92566 0.053,2.13568 2.1356,2.13568 z m -26.5157,-4.50955 c -0.1096,0.49284 -0.1642,1.17735 -0.1642,2.05351 0,0.87618 0.4106,1.75235 1.2321,2.62853 0.8214,0.8214 2.1904,1.23211 4.107,1.23211 1.9714,0 3.669,-0.76666 5.0927,-2.29995 l 2.4643,-13.799694 c -0.6024,-1.36902 -2.0262,-2.05353 -4.2713,-2.05353 -4.2166,0 -6.6808,2.02615 -7.3927,6.07844 z"
       style="fill:#ffffff;fill-opacity:1;stroke:none;stroke-width:3.42255"
       id="path91" /><text
       xml:space="preserve"
       style="font-style:normal;font-variant:normal;font-weight:normal;font-stretch:normal;font-size:31.7973px;font-family:'Alumni Sans';-inkscape-font-specification:'Alumni Sans, @wght=500';font-variant-ligatures:normal;font-variant-caps:normal;font-variant-numeric:normal;font-variant-east-asian:normal;font-variation-settings:'wght' 500;text-align:start;writing-mode:lr-tb;direction:ltr;text-anchor:start;fill:#ffffff;fill-opacity:1;stroke:none;stroke-width:5.29955"
       x="342.18478"
       y="-53.466522"
       id="text91"
       transform="skewX(-10.107702)"><tspan
         id="tspan91"
         x="342.18478"
         y="-53.466522"
         style="font-style:normal;font-variant:normal;font-weight:normal;font-stretch:normal;font-size:31.7973px;font-family:'Alumni Sans';-inkscape-font-specification:'Alumni Sans, @wght=500';font-variant-ligatures:normal;font-variant-caps:normal;font-variant-numeric:normal;font-variant-east-asian:normal;font-variation-settings:'wght' 500;fill:#ffffff;fill-opacity:1;stroke-width:5.29955">SPECIAL PLASTIC KITS</tspan></text></g></svg>
