<?xml version="1.0" encoding="UTF-8" standalone="no"?>
<svg
   width="324.14252"
   height="110.08734"
   viewBox="0 0 324.14252 110.08734"
   fill="none"
   version="1.1"
   id="svg6"
   xml:space="preserve"
   xmlns="http://www.w3.org/2000/svg"
   xmlns:svg="http://www.w3.org/2000/svg"><defs
     id="defs6" /><g
     id="g103"
     transform="translate(-322.23528,527.73302)"><rect
       style="fill:#8ddbfd;fill-opacity:1;stroke:none;stroke-width:7.15587"
       id="rect77"
       width="256.01956"
       height="205.07454"
       x="348.24606"
       y="-527.16907"
       transform="scale(1,-1)" /><g
       id="g108"><path
         d="m 496.96247,382.89646 c 0,1.02096 -0.30938,1.96459 -0.92815,2.83086 h -7.61084 c 0.24751,-0.18563 0.37126,-0.49501 0.37126,-0.92815 0,-0.43314 -0.2475,-0.77346 -0.74252,-1.02097 -0.49501,-0.27844 -1.12925,-0.41767 -1.90271,-0.41767 -2.32038,0 -3.48056,0.71159 -3.48056,2.13475 0,0.55689 0.43313,0.95909 1.29941,1.2066 0.86627,0.24751 1.91818,0.44861 3.15571,0.6033 1.23754,0.15469 2.47507,0.38673 3.71261,0.69611 1.23753,0.27845 2.28944,0.85081 3.15571,1.71708 0.86627,0.86628 1.29941,2.02646 1.29941,3.48057 0,2.56788 -1.03643,4.517 -3.1093,5.84735 -2.04194,1.33035 -5.02749,1.99553 -8.95666,1.99553 -3.92918,0 -6.68269,-0.63424 -8.26055,-1.90271 -1.23753,-0.99003 -1.8563,-2.35132 -1.8563,-4.08387 0,-0.49501 0.0464,-1.0055 0.13922,-1.53145 l 7.75006,-0.0928 c -0.0619,0.43314 0.18563,0.81987 0.74252,1.16019 0.58784,0.30939 1.43864,0.46408 2.55242,0.46408 1.11378,0 1.91818,-0.10829 2.41319,-0.32485 0.49502,-0.24751 0.74253,-0.69612 0.74253,-1.34582 0,-0.43314 -0.43314,-0.72705 -1.29942,-0.88175 -0.86627,-0.18562 -1.93365,-0.34032 -3.20212,-0.46407 -1.23753,-0.12376 -2.49054,-0.32485 -3.75901,-0.6033 -1.23754,-0.27844 -2.28944,-0.86627 -3.15571,-1.76348 -0.86628,-0.89722 -1.29941,-2.07288 -1.29941,-3.52698 0,-2.81539 1.08284,-4.98108 3.24852,-6.49706 2.19663,-1.51598 5.35234,-2.27397 9.46715,-2.27397 6.34236,0 9.51354,1.84084 9.51354,5.5225 z"
         style="fill:#003e4c;fill-opacity:1;stroke:none;stroke-width:1.93365"
         id="path77" /><path
         d="m 449.23411,393.12969 c 0,0.8044 0.4022,1.2066 1.20659,1.2066 0.83534,0 1.53145,-0.15469 2.08834,-0.46407 l -0.14509,5.1983 c -1.48504,1.2066 -3.24266,1.85564 -5.09896,1.85564 -2.81539,0 -4.64075,-0.6497 -5.47609,-1.94912 -0.52595,-0.83533 -0.78893,-1.74801 -0.78893,-2.73804 0,-0.99003 0.0619,-1.8563 0.18563,-2.59882 l 5.05843,-28.58708 h 7.88928 l -4.87279,27.5197 c -0.0309,0.18563 -0.0464,0.37126 -0.0464,0.55689 z"
         fill="#ffffff"
         id="path78"
         style="fill:#003e4c;fill-opacity:1;stroke:none;stroke-width:1.93365" /><g
         id="g79"
         transform="matrix(1.9336482,0,0,1.9336482,398.40585,343.25719)"><path
           d="m 63.434256,8.755696 c -1.3794,0 -2.498047,1.1186869 -2.498047,2.498047 0,0.317924 0.06356,0.620709 0.171875,0.90039 0.677127,2.291441 3.424322,4.256069 4.392578,4.765625 0.957978,-0.504285 3.656429,-2.43295 4.369141,-4.693359 0.0194,-0.06154 0.03804,-0.12343 0.05469,-0.185547 -0.01351,0.0508 -0.02755,0.101965 -0.04297,0.152344 0.117924,-0.290121 0.185547,-0.606985 0.185547,-0.939453 0,-1.3793701 -1.118647,-2.498047 -2.498047,-2.498047 -0.859613,0 -1.619056,0.434607 -2.06836,1.0957031 C 65.051326,9.1903193 64.293857,8.755696 63.434256,8.755696 Z"
           style="fill:#ff0000"
           id="path79" /></g><path
         d="m 526.88676,394.36372 c 0.71158,0 1.89676,-0.15469 2.58482,-0.41161 l -0.91415,5.19157 c -1.4541,1.20661 -3.1093,1.80991 -4.9656,1.80991 -2.81539,0 -4.64076,-0.64971 -5.4761,-1.94914 -0.55689,-0.86625 -0.83533,-1.77893 -0.83533,-2.73802 0,-0.99005 0.0619,-1.8563 0.18563,-2.59885 l 2.78445,-15.68573 h 7.88929 l -2.59883,14.61838 c -0.0309,0.18563 -0.0464,0.35579 -0.0464,0.51048 0,0.83534 0.46407,1.25301 1.39222,1.25301 z"
         fill="#ffffff"
         id="path80"
         style="fill:#003e4c;fill-opacity:1;stroke:none;stroke-width:1.93365" /><path
         d="m 397.28161,391.05092 c -0.11331,2.07427 1.31796,3.11138 4.29406,3.11138 3.00616,0 4.56012,-0.9319 4.66202,-2.79573 0.0541,-0.99201 -0.41244,-1.80369 -1.39998,-2.43498 -0.98759,-0.6313 -2.20637,-1.15737 -3.65639,-1.57822 -1.41994,-0.42088 -2.85163,-0.90186 -4.29508,-1.44297 -1.41174,-0.57116 -2.5966,-1.44295 -3.55461,-2.61536 -0.95634,-1.20245 -1.38605,-2.69051 -1.28908,-4.46413 0.41247,-7.54548 5.47365,-11.31821 15.18349,-11.31821 3.54728,0 6.18578,0.67639 7.91552,2.02916 1.76144,1.32271 2.83211,3.19927 2.44744,5.54637 -0.27498,1.67781 -0.51984,3.06597 -0.81418,4.7347 h -8.16691 c 0.15002,-0.85052 0.28729,-1.62873 0.47805,-2.61536 0.37146,-1.92133 -1.1174,-2.93101 -3.67258,-2.93101 -3.21659,0 -4.88076,1.02211 -4.99251,3.06629 -0.0559,1.02211 0.4108,1.83376 1.40004,2.43498 0.98922,0.60123 2.19545,1.08223 3.61869,1.44297 1.45488,0.33067 2.9049,0.75153 4.34997,1.26258 1.44508,0.51104 2.64579,1.3678 3.60216,2.57026 0.958,1.17241 1.38524,2.70554 1.28171,4.59943 -0.20871,3.81782 -1.50635,6.65863 -3.89291,8.52246 -2.38493,1.83375 -5.95226,2.75063 -10.70193,2.75063 -4.74972,0 -7.95035,-0.84173 -9.6019,-2.52517 -1.22363,-1.26259 -2.01186,-3.03193 -1.65304,-5.23071 0.20683,-1.26736 0.38862,-2.29802 0.59572,-3.47211 h 8.11662 c -0.0819,0.46419 -0.20738,0.89446 -0.25427,1.35275 z"
         style="fill:#003e4c;fill-opacity:1;stroke:none;stroke-width:1.87885"
         id="path81" /><path
         d="m 429.83482,390.76853 h -5.5225 l -1.80989,10.16325 h -8.35336 l 5.89376,-33.41346 h 14.15431 c 3.49603,0 5.98657,0.8044 7.47161,2.4132 1.08284,1.23753 1.62426,2.81541 1.62426,4.73359 0,0.6497 -0.0619,1.33035 -0.18563,2.04193 l -0.92814,5.24405 c -0.46408,2.56789 -1.82537,4.68717 -4.08387,6.35784 -2.2585,1.63973 -5.01202,2.4596 -8.26055,2.4596 z m 1.43864,-16.01061 h -4.17668 l -1.53145,8.77103 h 4.13027 c 2.53695,0 4.00652,-1.12925 4.40872,-3.38775 l 0.32485,-1.90271 c 0.0619,-0.27845 0.0928,-0.64971 0.0928,-1.11378 0,-0.46408 -0.23204,-0.97456 -0.69612,-1.53145 -0.46407,-0.55689 -1.31488,-0.83534 -2.55241,-0.83534 z"
         style="fill:#003e4c;fill-opacity:1;stroke:none;stroke-width:1.93365"
         id="path82" /><path
         d="m 561.71708,367.54647 -10.62474,16.84277 4.73268,16.56435 h -8.81577 l -3.47991,-12.24927 h -3.6655 l -2.18073,12.24927 h -8.35179 l 5.89265,-33.40712 h 8.35178 l -2.45914,13.91964 h 2.96952 l 8.81576,-13.91964 z"
         style="fill:#003e4c;fill-opacity:1;stroke:none;stroke-width:1.93328"
         id="path83" /><path
         d="m 503.96945,400.91984 c -3.58357,0 -6.16313,-0.80322 -7.73867,-2.40965 -1.17394,-1.17394 -1.76089,-2.74948 -1.76089,-4.72662 0,-0.64875 0.0619,-1.34384 0.18543,-2.08526 l 3.15107,-17.93333 8.4801,-3.52181 -1.34383,7.73869 h 14.2267 l -1.15849,6.53386 h -14.2267 l -0.92678,5.23633 c -0.12356,0.58697 -0.18543,1.11214 -0.18543,1.57554 0,1.94626 0.92677,2.91938 2.78035,2.91938 0.98856,0 1.80723,-0.41706 2.45599,-1.25116 0.67964,-0.83412 1.14303,-1.94626 1.39017,-3.33643 h 7.69232 c -1.29749,7.50696 -5.63793,11.26044 -13.02134,11.26044 z"
         style="fill:#003e4c;fill-opacity:1;stroke:none;stroke-width:1.9308"
         id="path84" /><path
         d="m 472.28337,393.19894 c 0,0.8044 0.40219,1.2066 1.20659,1.2066 0.83534,0 1.53145,-0.1547 2.08834,-0.46408 l -0.0746,5.11288 c -1.48505,1.20659 -3.31313,1.94107 -5.16943,1.94107 -3.40322,0 -5.29046,-1.23754 -5.66172,-3.71261 -1.54692,2.47507 -3.82089,3.71261 -6.82191,3.71261 -5.07389,0 -7.61084,-2.18116 -7.61084,-6.54347 0,-0.74252 0.0773,-1.56238 0.23204,-2.4596 l 0.97455,-5.42968 c 0.49502,-2.78446 1.62427,-4.99655 3.38775,-6.63629 1.79443,-1.67066 4.11481,-2.506 6.96114,-2.506 2.87727,0 4.82639,0.66518 5.84735,1.99552 l 0.23204,-1.39222 h 7.05395 l -2.59883,14.61838 c -0.0309,0.18563 -0.0464,0.37126 -0.0464,0.55689 z m -13.73664,-2.22756 c -0.0619,0.27844 -0.0928,0.66517 -0.0928,1.16018 0,0.49502 0.23203,0.99003 0.69611,1.48505 0.46407,0.46407 1.23753,0.69611 2.32038,0.69611 1.11378,0 2.07287,-0.43314 2.87726,-1.29941 l 1.39223,-7.79647 c -0.34032,-0.77346 -1.14472,-1.16019 -2.41319,-1.16019 -2.38226,0 -3.77448,1.14472 -4.17668,3.43416 z"
         style="fill:#003e4c;fill-opacity:1;stroke:none;stroke-width:1.93365"
         id="path85" /><text
         xml:space="preserve"
         style="font-style:normal;font-variant:normal;font-weight:normal;font-stretch:normal;font-size:27.2682px;font-family:'Alumni Sans';-inkscape-font-specification:'Alumni Sans, @wght=300';font-variant-ligatures:normal;font-variant-caps:normal;font-variant-numeric:normal;font-variant-east-asian:normal;font-variation-settings:'wght' 300;text-align:start;writing-mode:lr-tb;direction:ltr;text-anchor:start;fill:#003e4c;fill-opacity:1;stroke:none;stroke-width:4.54469"
         x="461.90833"
         y="421.63467"
         id="text85"
         transform="skewX(-10.107702)"><tspan
           id="tspan85"
           x="461.90833"
           y="421.63467"
           style="font-style:normal;font-variant:normal;font-weight:normal;font-stretch:normal;font-size:27.2682px;font-family:'Alumni Sans';-inkscape-font-specification:'Alumni Sans, @wght=300';font-variant-ligatures:normal;font-variant-caps:normal;font-variant-numeric:normal;font-variant-east-asian:normal;font-variation-settings:'wght' 300;fill:#003e4c;fill-opacity:1;stroke-width:4.54469">SPECIAL PLASTIC KITS</tspan></text></g><g
       id="g88"
       transform="translate(92.138379,-61.905472)"
       style="fill:#003e4c;fill-opacity:1"><path
         d="m 304.78331,544.96906 c -0.11331,2.07427 1.31796,3.11138 4.29406,3.11138 3.00616,0 4.56012,-0.9319 4.66202,-2.79573 0.0541,-0.99202 -0.41244,-1.80369 -1.39998,-2.43498 -0.98759,-0.6313 -2.20637,-1.15737 -3.65639,-1.57823 -1.41994,-0.42088 -2.85163,-0.90185 -4.29508,-1.44296 -1.41174,-0.57116 -2.5966,-1.44295 -3.55461,-2.61536 -0.95634,-1.20246 -1.38605,-2.69052 -1.28908,-4.46413 0.41247,-7.54549 5.47365,-11.31821 15.18349,-11.31821 3.54728,0 6.18578,0.67639 7.91552,2.02915 1.76144,1.32272 2.83211,3.19928 2.44744,5.54638 -0.27498,1.67781 -0.51984,3.06597 -0.81418,4.7347 h -8.16691 c 0.15002,-0.85052 0.28729,-1.62873 0.47805,-2.61536 0.37146,-1.92133 -1.1174,-2.93101 -3.67258,-2.93101 -3.21659,0 -4.88076,1.02211 -4.99251,3.06629 -0.0559,1.0221 0.4108,1.83375 1.40004,2.43498 0.98922,0.60123 2.19545,1.08222 3.61869,1.44297 1.45488,0.33067 2.9049,0.75153 4.34997,1.26257 1.44508,0.51105 2.64579,1.36781 3.60216,2.57027 0.958,1.17241 1.38524,2.70554 1.28171,4.59943 -0.20871,3.81781 -1.50635,6.65863 -3.89291,8.52246 -2.38493,1.83375 -5.95226,2.75063 -10.70193,2.75063 -4.74972,0 -7.95035,-0.84173 -9.6019,-2.52517 -1.22363,-1.2626 -2.01186,-3.03193 -1.65304,-5.23071 0.20683,-1.26736 0.38862,-2.29802 0.59572,-3.47212 h 8.11662 c -0.0819,0.46419 -0.20738,0.89447 -0.25427,1.35276 z"
         style="fill:#003e4c;fill-opacity:1;stroke:none;stroke-width:1.87885"
         id="path86" /><path
         d="m 337.3309,544.68105 h -5.5225 l -1.80989,10.16325 h -8.35336 l 5.89376,-33.41346 h 14.15431 c 3.49603,0 5.98657,0.8044 7.47161,2.41319 1.08284,1.23754 1.62426,2.81542 1.62426,4.7336 0,0.6497 -0.0619,1.33034 -0.18563,2.04193 l -0.92814,5.24405 c -0.46408,2.56789 -1.82537,4.68717 -4.08387,6.35783 -2.2585,1.63974 -5.01202,2.45961 -8.26055,2.45961 z m 1.43864,-16.01061 h -4.17668 l -1.53145,8.77103 h 4.13027 c 2.53695,0 4.00652,-1.12925 4.40872,-3.38775 l 0.32485,-1.90272 c 0.0619,-0.27844 0.0928,-0.6497 0.0928,-1.11377 0,-0.46408 -0.23204,-0.97456 -0.69612,-1.53146 -0.46407,-0.55689 -1.31488,-0.83533 -2.55241,-0.83533 z"
         style="fill:#003e4c;fill-opacity:1;stroke:none;stroke-width:1.93365"
         id="path87" /><path
         d="m 379.80118,521.43718 -10.62474,16.84277 4.73268,16.56435 h -8.81577 l -3.47991,-12.24927 h -3.6655 l -2.18073,12.24927 h -8.3518 l 5.89266,-33.40712 h 8.35178 l -2.45914,13.91964 h 2.96952 l 8.81576,-13.91964 z"
         style="fill:#003e4c;fill-opacity:1;stroke:none;stroke-width:1.93328"
         id="path88" /></g><g
       id="g89"
       transform="matrix(1.9336482,0,0,1.9336482,348.02167,455.69765)"><path
         d="m 63.434256,8.755696 c -1.3794,0 -2.498047,1.1186869 -2.498047,2.498047 0,0.317924 0.06356,0.620709 0.171875,0.90039 0.677127,2.291441 3.424322,4.256069 4.392578,4.765625 0.957978,-0.504285 3.656429,-2.43295 4.369141,-4.693359 0.0194,-0.06154 0.03804,-0.12343 0.05469,-0.185547 -0.01351,0.0508 -0.02755,0.101965 -0.04297,0.152344 0.117924,-0.290121 0.185547,-0.606985 0.185547,-0.939453 0,-1.3793701 -1.118647,-2.498047 -2.498047,-2.498047 -0.859613,0 -1.619056,0.434607 -2.06836,1.0957031 C 65.051326,9.1903193 64.293857,8.755696 63.434256,8.755696 Z"
         style="fill:#ff0000"
         id="path89" /></g><g
       id="g43"><path
         d="m 525.04609,-487.72595 c 0,1.80709 -0.5476,3.47731 -1.64281,5.0106 h -13.47113 c 0.43809,-0.32856 0.65712,-0.87617 0.65712,-1.64282 0,-0.76665 -0.43807,-1.36902 -1.31425,-1.80711 -0.87617,-0.49284 -1.99877,-0.73927 -3.36778,-0.73927 -4.10706,0 -6.16057,1.25951 -6.16057,3.77849 0,0.98569 0.76664,1.69758 2.29995,2.13567 1.53329,0.43809 3.39516,0.79404 5.58558,1.06784 2.19044,0.2738 4.38086,0.68451 6.57129,1.23211 2.19042,0.49285 4.05229,1.50593 5.58558,3.03922 1.5333,1.53331 2.29995,3.58682 2.29995,6.16058 0,4.54513 -1.83447,7.99506 -5.50344,10.34976 -3.61422,2.35471 -8.89862,3.53208 -15.85322,3.53208 -6.95462,0 -11.82831,-1.1226 -14.62111,-3.36778 -2.19042,-1.75235 -3.28563,-4.16182 -3.28563,-7.22842 0,-0.87617 0.0821,-1.77973 0.24641,-2.71066 l 13.71755,-0.16425 c 0,0.91011 0.61971,1.65253 1.31426,2.05352 1.04047,0.54762 2.54638,0.82142 4.51776,0.82142 1.97138,0 3.39516,-0.19167 4.27133,-0.57498 0.87618,-0.43809 1.31427,-1.23213 1.31427,-2.38209 0,-0.76666 -0.76665,-1.28687 -2.29996,-1.56069 -1.53329,-0.32855 -3.42255,-0.60237 -5.66773,-0.8214 -2.19042,-0.21906 -4.40824,-0.57498 -6.65342,-1.06784 -2.19044,-0.49284 -4.05229,-1.53329 -5.58558,-3.12135 -1.53331,-1.58807 -2.29995,-3.66898 -2.29995,-6.24272 0,-4.98322 1.91662,-8.81648 5.74986,-11.49975 3.88802,-2.68327 9.4736,-4.02491 16.75678,-4.02491 11.22593,0 16.83889,3.25827 16.83889,9.77478 z"
         style="fill:#ffffff;fill-opacity:1;stroke:none;stroke-width:3.42255"
         id="path2" /><path
         d="m 432.44724,-469.61321 c 0,1.42378 0.71189,2.13567 2.13566,2.13567 1.47854,0 2.71065,-0.2738 3.69634,-0.8214 l -0.25681,9.20095 c -2.6285,2.13567 -5.73948,3.28447 -9.02512,3.28447 -4.98321,0 -8.21409,-1.14996 -9.69263,-3.44993 -0.93093,-1.47853 -1.3964,-3.09396 -1.3964,-4.84631 0,-1.75234 0.10956,-3.28563 0.32856,-4.59989 l 8.95338,-50.59891 h 13.96397 l -8.6248,48.70966 c -0.0547,0.32856 -0.0821,0.65712 -0.0821,0.98569 z"
         fill="#ffffff"
         id="path6"
         style="fill:#ffffff;fill-opacity:1;stroke:none;stroke-width:3.42255" /><g
         id="g1"
         transform="matrix(1.7699924,0,0,1.7699924,-352.48517,-927.26237)"><g
           id="g8"
           transform="matrix(1.9336482,0,0,1.9336482,400.31533,208.79334)"><path
             d="m 63.434256,8.755696 c -1.3794,0 -2.498047,1.1186869 -2.498047,2.498047 0,0.317924 0.06356,0.620709 0.171875,0.90039 0.677127,2.291441 3.424322,4.256069 4.392578,4.765625 0.957978,-0.504285 3.656429,-2.43295 4.369141,-4.693359 0.0194,-0.06154 0.03804,-0.12343 0.05469,-0.185547 -0.01351,0.0508 -0.02755,0.101965 -0.04297,0.152344 0.117924,-0.290121 0.185547,-0.606985 0.185547,-0.939453 0,-1.3793701 -1.118647,-2.498047 -2.498047,-2.498047 -0.859613,0 -1.619056,0.434607 -2.06836,1.0957031 C 65.051326,9.1903193 64.293857,8.755696 63.434256,8.755696 Z"
             style="fill:#ff0000"
             id="path8" /></g><path
           d="m 528.79624,259.89987 c 0.71158,0 1.89676,-0.15469 2.58482,-0.41161 l -0.91415,5.19157 c -1.4541,1.20661 -3.1093,1.80991 -4.9656,1.80991 -2.81539,0 -4.64076,-0.64971 -5.4761,-1.94914 -0.55689,-0.86625 -0.83533,-1.77893 -0.83533,-2.73802 0,-0.99005 0.0619,-1.8563 0.18563,-2.59885 l 2.78445,-15.68573 h 7.88929 l -2.59883,14.61838 c -0.0309,0.18563 -0.0464,0.35579 -0.0464,0.51048 0,0.83534 0.46407,1.25301 1.39222,1.25301 z"
           fill="#ffffff"
           id="path9"
           style="fill:#ffffff;fill-opacity:1;stroke:none;stroke-width:1.93365" /></g><path
         d="m 338.49173,-473.29262 c -0.20056,3.67144 2.33278,5.50712 7.60045,5.50712 5.32088,0 8.07138,-1.64946 8.25174,-4.94842 0.0958,-1.75585 -0.73002,-3.19252 -2.47795,-4.3099 -1.74803,-1.11739 -3.90526,-2.04853 -6.47179,-2.79344 -2.51328,-0.74495 -5.04736,-1.59628 -7.60226,-2.55404 -2.49876,-1.01095 -4.59596,-2.55401 -6.29163,-4.62917 -1.69271,-2.12833 -2.4533,-4.76218 -2.28166,-7.90147 0.73007,-13.35545 9.68832,-20.03315 26.87466,-20.03315 6.27866,0 10.94879,1.1972 14.01041,3.5916 3.11774,2.34118 5.01282,5.66268 4.33195,9.81703 -0.48671,2.96971 -0.92011,5.42674 -1.44109,8.38038 h -14.45537 c 0.26554,-1.50541 0.5085,-2.88284 0.84615,-4.62916 0.65748,-3.40074 -1.97779,-5.18787 -6.50044,-5.18787 -5.69334,0 -8.63891,1.80913 -8.83671,5.42731 -0.0989,1.80913 0.72712,3.24574 2.47806,4.3099 1.75092,1.06417 3.88593,1.91554 6.40506,2.55404 2.57512,0.58529 5.14165,1.3302 7.69941,2.23476 2.55778,0.90454 4.68303,2.421 6.3758,4.54934 1.69565,2.07516 2.45186,4.78879 2.26861,8.14096 -0.36941,6.75751 -2.66622,11.78572 -6.89042,15.08469 -4.22131,3.24572 -10.53545,4.86859 -18.94233,4.86859 -8.40697,0 -14.07206,-1.48986 -16.99529,-4.46953 -2.16582,-2.23478 -3.56098,-5.36649 -2.92587,-9.25832 0.36609,-2.24322 0.68785,-4.06748 1.05442,-6.14561 H 338.942 c -0.14497,0.82162 -0.36707,1.58319 -0.45006,2.39436 z"
         style="fill:#ffffff;fill-opacity:1;stroke:none;stroke-width:3.32555"
         id="path18" /><path
         d="m 397.11065,-473.79245 h -9.77478 l -3.20349,17.98888 H 369.347 l 10.43191,-59.14157 h 25.05302 c 6.18794,0 10.59618,1.42378 13.22469,4.27134 1.91662,2.19042 2.87493,4.98326 2.87493,8.37842 0,1.14997 -0.10956,2.35471 -0.32857,3.6142 l -1.6428,9.28193 c -0.82141,4.54515 -3.23089,8.29626 -7.22842,11.25333 -3.99752,2.90231 -8.87123,4.35347 -14.62111,4.35347 z m 2.54639,-28.33866 h -7.3927 l -2.71065,15.52466 h 7.31055 c 4.49038,0 7.09151,-1.99876 7.8034,-5.99629 l 0.57498,-3.36778 c 0.10956,-0.49286 0.16425,-1.14999 0.16425,-1.97139 0,-0.82141 -0.41071,-1.72496 -1.23212,-2.71065 -0.8214,-0.98569 -2.32733,-1.47855 -4.51775,-1.47855 z"
         style="fill:#ffffff;fill-opacity:1;stroke:none;stroke-width:3.42255"
         id="path19" /><path
         d="m 646.37778,-514.70789 -18.80571,29.81157 8.37681,29.31878 h -15.60385 l -6.15941,-21.68112 h -6.48791 l -3.85987,21.68112 h -14.78261 l 10.42995,-59.13035 h 14.78258 l -4.35265,24.63765 h 5.25602 l 15.60383,-24.63765 z"
         style="fill:#ffffff;fill-opacity:1;stroke:none;stroke-width:3.42189"
         id="path20" /><path
         d="m 541.86024,-455.6088 c -6.34289,0 -10.90869,-1.4217 -13.69738,-4.26506 -2.07787,-2.07787 -3.11677,-4.86656 -3.11677,-8.36609 0,-1.14828 0.10957,-2.37858 0.32821,-3.69089 l 5.57737,-31.74186 15.00972,-6.23358 -2.37857,13.69743 h 17.1703 l -2.05051,11.56488 H 541.5323 l -1.6404,9.26826 c -0.2187,1.03894 -0.3282,1.96848 -0.3282,2.7887 0,3.44486 1.64037,5.16728 4.92119,5.16728 1.74975,0 3.19879,-0.73819 4.34709,-2.21455 1.20295,-1.47638 2.02315,-3.44486 2.46059,-5.90545 h 13.61535 c -2.29655,13.28726 -9.9791,19.93089 -23.04768,19.93089 z"
         style="fill:#ffffff;fill-opacity:1;stroke:none;stroke-width:3.4175"
         id="path21" /><path
         d="m 481.56623,-468.92385 c 1.47855,0 2.71066,0.56586 3.69635,0.0182 l -0.19833,9.77896 c -2.62853,2.13565 -5.86422,3.43568 -9.14985,3.43568 -6.02368,0 -9.36408,-2.19044 -10.0212,-6.57129 -2.73804,4.38085 -6.76295,6.57129 -12.07473,6.57129 -8.98075,0 -13.47113,-3.86064 -13.47113,-11.5819 0,-1.31425 0.13682,-2.7654 0.41071,-4.35347 l 1.72494,-9.61049 c 0.87618,-4.92847 2.87495,-8.84386 5.99629,-11.74618 3.17613,-2.95706 7.28319,-4.43561 12.32117,-4.43561 5.09275,0 8.54267,1.17737 10.34976,3.53206 l 0.41071,-2.46422 h 12.48544 l -4.53362,24.30554 c -0.0547,0.32856 -0.0545,0.65829 -0.0821,0.98569 -0.0782,0.92565 0.0526,2.13567 2.13562,2.13567 z m -26.51569,-4.50955 c -0.10956,0.49283 -0.16425,1.17734 -0.16425,2.0535 0,0.87619 0.41069,1.75235 1.2321,2.62853 0.82141,0.8214 2.19042,1.23211 4.10706,1.23211 1.97138,0 3.66896,-0.76665 5.09273,-2.29994 l 2.46423,-13.7997 c -0.60236,-1.36902 -2.02614,-2.05352 -4.27132,-2.05352 -4.21659,0 -6.6808,2.02614 -7.3927,6.07843 z"
         style="fill:#ffffff;fill-opacity:1;stroke:none;stroke-width:3.42255"
         id="path22" /><text
         xml:space="preserve"
         style="font-style:normal;font-variant:normal;font-weight:normal;font-stretch:normal;font-size:50.6189px;font-family:'Alumni Sans';-inkscape-font-specification:'Alumni Sans, @wght=300';font-variant-ligatures:normal;font-variant-caps:normal;font-variant-numeric:normal;font-variant-east-asian:normal;font-variation-settings:'wght' 300;text-align:start;writing-mode:lr-tb;direction:ltr;text-anchor:start;fill:#ffffff;fill-opacity:1;stroke:none;stroke-width:8.43649"
         x="245.65382"
         y="-418.25308"
         id="text22"
         transform="skewX(-10.107702)"><tspan
           id="tspan22"
           x="245.65382"
           y="-418.25308"
           style="font-style:normal;font-variant:normal;font-weight:normal;font-stretch:normal;font-size:50.6189px;font-family:'Alumni Sans';-inkscape-font-specification:'Alumni Sans, @wght=300';font-variant-ligatures:normal;font-variant-caps:normal;font-variant-numeric:normal;font-variant-east-asian:normal;font-variation-settings:'wght' 300;fill:#ffffff;fill-opacity:1;stroke-width:8.43649">SPECIAL PLASTIC KITS</tspan></text></g><path
       d="m 525.04609,-334.22595 c 0,1.8071 -0.5476,3.47731 -1.64281,5.01061 h -13.47113 c 0.43809,-0.32857 0.65712,-0.87617 0.65712,-1.64282 0,-0.76666 -0.43807,-1.36902 -1.31425,-1.80711 -0.87617,-0.49284 -1.99877,-0.73927 -3.36778,-0.73927 -4.10706,0 -6.16057,1.2595 -6.16057,3.77849 0,0.98569 0.76664,1.69758 2.29995,2.13567 1.53329,0.43809 3.39516,0.79404 5.58558,1.06784 2.19044,0.2738 4.38086,0.6845 6.57129,1.23211 2.19042,0.49285 4.05229,1.50592 5.58558,3.03921 1.5333,1.53331 2.29995,3.58682 2.29995,6.16059 0,4.54512 -1.83447,7.99505 -5.50344,10.34976 -3.61422,2.35471 -8.89862,3.53207 -15.85322,3.53207 -6.95462,0 -11.82831,-1.1226 -14.62111,-3.36778 -2.19042,-1.75234 -3.28563,-4.16182 -3.28563,-7.22842 0,-0.87616 0.0821,-1.77972 0.24641,-2.71065 l 13.71755,-0.16426 c 0,0.91012 0.61971,1.65254 1.31426,2.05353 1.04047,0.54762 2.54638,0.82142 4.51776,0.82142 1.97138,0 3.39516,-0.19167 4.27133,-0.57498 0.87618,-0.43809 1.31427,-1.23213 1.31427,-2.38209 0,-0.76666 -0.76665,-1.28688 -2.29996,-1.5607 -1.53329,-0.32854 -3.42255,-0.60236 -5.66773,-0.8214 -2.19042,-0.21905 -4.40824,-0.57498 -6.65342,-1.06783 -2.19044,-0.49284 -4.05229,-1.53329 -5.58558,-3.12135 -1.53331,-1.58807 -2.29995,-3.66898 -2.29995,-6.24273 0,-4.98322 1.91662,-8.81647 5.74986,-11.49974 3.88802,-2.68328 9.4736,-4.02491 16.75678,-4.02491 11.22593,0 16.83889,3.25827 16.83889,9.77478 z"
       style="fill:#092930;fill-opacity:1;stroke:none;stroke-width:3.42255"
       id="path35" /><path
       d="m 432.44724,-316.11321 c 0,1.42379 0.71189,2.13568 2.13566,2.13568 1.47854,0 2.71065,-0.2738 3.69634,-0.8214 l -0.25681,9.20095 c -2.6285,2.13567 -5.73948,3.28447 -9.02512,3.28447 -4.98321,0 -8.21409,-1.14997 -9.69263,-3.44993 -0.93093,-1.47853 -1.3964,-3.09397 -1.3964,-4.84631 0,-1.75235 0.10956,-3.28564 0.32856,-4.59989 l 8.95338,-50.59892 h 13.96397 l -8.6248,48.70966 c -0.0547,0.32857 -0.0821,0.65713 -0.0821,0.98569 z"
       fill="#ffffff"
       id="path36"
       style="fill:#092930;fill-opacity:1;stroke:none;stroke-width:3.42255" /><g
       id="g38"
       transform="matrix(1.7699924,0,0,1.7699924,-352.48517,-773.76237)"><g
         id="g37"
         transform="matrix(1.9336482,0,0,1.9336482,400.31533,208.79334)"><path
           d="m 63.434256,8.755696 c -1.3794,0 -2.498047,1.1186869 -2.498047,2.498047 0,0.317924 0.06356,0.620709 0.171875,0.90039 0.677127,2.291441 3.424322,4.256069 4.392578,4.765625 0.957978,-0.504285 3.656429,-2.43295 4.369141,-4.693359 0.0194,-0.06154 0.03804,-0.12343 0.05469,-0.185547 -0.01351,0.0508 -0.02755,0.101965 -0.04297,0.152344 0.117924,-0.290121 0.185547,-0.606985 0.185547,-0.939453 0,-1.3793701 -1.118647,-2.498047 -2.498047,-2.498047 -0.859613,0 -1.619056,0.434607 -2.06836,1.0957031 C 65.051326,9.1903193 64.293857,8.755696 63.434256,8.755696 Z"
           style="fill:#ff0000"
           id="path37" /></g><path
         d="m 528.79624,259.89987 c 0.71158,0 1.89676,-0.15469 2.58482,-0.41161 l -0.91415,5.19157 c -1.4541,1.20661 -3.1093,1.80991 -4.9656,1.80991 -2.81539,0 -4.64076,-0.64971 -5.4761,-1.94914 -0.55689,-0.86625 -0.83533,-1.77893 -0.83533,-2.73802 0,-0.99005 0.0619,-1.8563 0.18563,-2.59885 l 2.78445,-15.68573 h 7.88929 l -2.59883,14.61838 c -0.0309,0.18563 -0.0464,0.35579 -0.0464,0.51048 0,0.83534 0.46407,1.25301 1.39222,1.25301 z"
         fill="#ffffff"
         id="path38"
         style="fill:#092930;fill-opacity:1;stroke:none;stroke-width:1.93365" /></g><path
       d="m 338.49173,-319.79261 c -0.20056,3.67144 2.33278,5.50712 7.60045,5.50712 5.32088,0 8.07138,-1.64946 8.25174,-4.94842 0.0958,-1.75586 -0.73002,-3.19252 -2.47795,-4.3099 -1.74803,-1.1174 -3.90526,-2.04854 -6.47179,-2.79344 -2.51328,-0.74495 -5.04736,-1.59628 -7.60226,-2.55404 -2.49876,-1.01095 -4.59596,-2.55401 -6.29163,-4.62917 -1.69271,-2.12833 -2.4533,-4.76218 -2.28166,-7.90148 0.73007,-13.35544 9.68832,-20.03314 26.87466,-20.03314 6.27866,0 10.94879,1.1972 14.01041,3.59159 3.11774,2.34119 5.01282,5.66269 4.33195,9.81704 -0.48671,2.96971 -0.92011,5.42674 -1.44109,8.38038 h -14.45537 c 0.26554,-1.50541 0.5085,-2.88284 0.84615,-4.62917 0.65748,-3.40074 -1.97779,-5.18786 -6.50044,-5.18786 -5.69334,0 -8.63891,1.80912 -8.83671,5.42731 -0.0989,1.80912 0.72712,3.24574 2.47806,4.30989 1.75092,1.06418 3.88593,1.91554 6.40506,2.55405 2.57512,0.58528 5.14165,1.3302 7.69941,2.23476 2.55778,0.90453 4.68303,2.42099 6.3758,4.54934 1.69565,2.07515 2.45186,4.78878 2.26861,8.14095 -0.36941,6.75752 -2.66622,11.78573 -6.89042,15.08469 -4.22131,3.24573 -10.53545,4.8686 -18.94233,4.8686 -8.40697,0 -14.07206,-1.48986 -16.99529,-4.46953 -2.16582,-2.23478 -3.56098,-5.3665 -2.92587,-9.25832 0.36609,-2.24322 0.68785,-4.06748 1.05442,-6.14561 H 338.942 c -0.14497,0.82161 -0.36707,1.58319 -0.45006,2.39436 z"
       style="fill:#092930;fill-opacity:1;stroke:none;stroke-width:3.32555"
       id="path39" /><path
       d="m 397.11065,-320.29244 h -9.77478 l -3.20349,17.98887 H 369.347 l 10.43191,-59.14157 h 25.05302 c 6.18794,0 10.59618,1.42379 13.22469,4.27135 1.91662,2.19042 2.87493,4.98325 2.87493,8.37842 0,1.14996 -0.10956,2.35471 -0.32857,3.6142 l -1.6428,9.28193 c -0.82141,4.54514 -3.23089,8.29625 -7.22842,11.25333 -3.99752,2.90231 -8.87123,4.35347 -14.62111,4.35347 z m 2.54639,-28.33866 h -7.3927 l -2.71065,15.52466 h 7.31055 c 4.49038,0 7.09151,-1.99877 7.8034,-5.99629 l 0.57498,-3.36779 c 0.10956,-0.49285 0.16425,-1.14998 0.16425,-1.97138 0,-0.82142 -0.41071,-1.72496 -1.23212,-2.71065 -0.8214,-0.98569 -2.32733,-1.47855 -4.51775,-1.47855 z"
       style="fill:#092930;fill-opacity:1;stroke:none;stroke-width:3.42255"
       id="path40" /><path
       d="m 646.37778,-361.20789 -18.80571,29.81158 8.37681,29.31877 h -15.60385 l -6.15941,-21.68111 h -6.48791 l -3.85987,21.68111 h -14.78261 l 10.42995,-59.13035 h 14.78258 l -4.35265,24.63766 h 5.25602 l 15.60383,-24.63766 z"
       style="fill:#092930;fill-opacity:1;stroke:none;stroke-width:3.42189"
       id="path41" /><path
       d="m 541.86024,-302.1088 c -6.34289,0 -10.90869,-1.42169 -13.69738,-4.26506 -2.07787,-2.07786 -3.11677,-4.86656 -3.11677,-8.36608 0,-1.14828 0.10957,-2.37859 0.32821,-3.69089 l 5.57737,-31.74186 15.00972,-6.23358 -2.37857,13.69742 h 17.1703 l -2.05051,11.56489 H 541.5323 l -1.6404,9.26826 c -0.2187,1.03893 -0.3282,1.96848 -0.3282,2.78869 0,3.44487 1.64037,5.16728 4.92119,5.16728 1.74975,0 3.19879,-0.73819 4.34709,-2.21454 1.20295,-1.47638 2.02315,-3.44486 2.46059,-5.90545 h 13.61535 c -2.29655,13.28726 -9.9791,19.93089 -23.04768,19.93089 z"
       style="fill:#092930;fill-opacity:1;stroke:none;stroke-width:3.4175"
       id="path42" /><path
       d="m 481.56623,-315.42385 c 1.47855,0 2.71066,0.56587 3.69635,0.0182 l -0.19833,9.77896 c -2.62853,2.13566 -5.86422,3.43568 -9.14985,3.43568 -6.02368,0 -9.36408,-2.19043 -10.0212,-6.57129 -2.73804,4.38086 -6.76295,6.57129 -12.07473,6.57129 -8.98075,0 -13.47113,-3.86063 -13.47113,-11.58189 0,-1.31425 0.13682,-2.7654 0.41071,-4.35347 l 1.72494,-9.61049 c 0.87618,-4.92848 2.87495,-8.84386 5.99629,-11.74619 3.17613,-2.95705 7.28319,-4.4356 12.32117,-4.4356 5.09275,0 8.54267,1.17737 10.34976,3.53206 l 0.41071,-2.46422 h 12.48544 l -4.53362,24.30553 c -0.0547,0.32857 -0.0545,0.6583 -0.0821,0.98569 -0.0782,0.92566 0.0526,2.13568 2.13562,2.13568 z m -26.51569,-4.50955 c -0.10956,0.49284 -0.16425,1.17735 -0.16425,2.05351 0,0.87618 0.41069,1.75235 1.2321,2.62853 0.82141,0.8214 2.19042,1.23211 4.10706,1.23211 1.97138,0 3.66896,-0.76666 5.09273,-2.29995 l 2.46423,-13.79969 c -0.60236,-1.36902 -2.02614,-2.05353 -4.27132,-2.05353 -4.21659,0 -6.6808,2.02615 -7.3927,6.07844 z"
       style="fill:#092930;fill-opacity:1;stroke:none;stroke-width:3.42255"
       id="path43" /><text
       xml:space="preserve"
       style="font-style:normal;font-variant:normal;font-weight:normal;font-stretch:normal;font-size:50.6189px;font-family:'Alumni Sans';-inkscape-font-specification:'Alumni Sans, @wght=300';font-variant-ligatures:normal;font-variant-caps:normal;font-variant-numeric:normal;font-variant-east-asian:normal;font-variation-settings:'wght' 300;text-align:start;writing-mode:lr-tb;direction:ltr;text-anchor:start;fill:#092930;fill-opacity:1;stroke:none;stroke-width:8.43649"
       x="273.01761"
       y="-264.75305"
       id="text43"
       transform="skewX(-10.107702)"><tspan
         id="tspan43"
         x="273.01761"
         y="-264.75305"
         style="font-style:normal;font-variant:normal;font-weight:normal;font-stretch:normal;font-size:50.6189px;font-family:'Alumni Sans';-inkscape-font-specification:'Alumni Sans, @wght=300';font-variant-ligatures:normal;font-variant-caps:normal;font-variant-numeric:normal;font-variant-east-asian:normal;font-variation-settings:'wght' 300;fill:#092930;fill-opacity:1;stroke-width:8.43649">SPECIAL PLASTIC KITS</tspan></text></g></svg>
