<?xml version="1.0" encoding="UTF-8" standalone="no"?>
<svg
   width="307.32623"
   height="109.16003"
   viewBox="0 0 307.32623 109.16003"
   fill="none"
   version="1.1"
   id="svg6"
   xml:space="preserve"
   xmlns="http://www.w3.org/2000/svg"
   xmlns:svg="http://www.w3.org/2000/svg"><defs
     id="defs6" /><g
     id="g103"
     transform="translate(-321.33513,245.42639)"><g
       id="g116"
       transform="matrix(1.7699924,0,0,1.7699924,-365.57362,-882.95575)"><g
         id="g117"><path
           d="m 496.96247,382.89646 c 0,1.02096 -0.30938,1.96459 -0.92815,2.83086 h -7.61084 c 0.24751,-0.18563 0.37126,-0.49501 0.37126,-0.92815 0,-0.43314 -0.2475,-0.77346 -0.74252,-1.02097 -0.49501,-0.27844 -1.12925,-0.41767 -1.90271,-0.41767 -2.32038,0 -3.48056,0.71159 -3.48056,2.13475 0,0.55689 0.43313,0.95909 1.29941,1.2066 0.86627,0.24751 1.91818,0.44861 3.15571,0.6033 1.23754,0.15469 2.47507,0.38673 3.71261,0.69611 1.23753,0.27845 2.28944,0.85081 3.15571,1.71708 0.86627,0.86628 1.29941,2.02646 1.29941,3.48057 0,2.56788 -1.03643,4.517 -3.1093,5.84735 -2.04194,1.33035 -5.02749,1.99553 -8.95666,1.99553 -3.92918,0 -6.68269,-0.63424 -8.26055,-1.90271 -1.23753,-0.99003 -1.8563,-2.35132 -1.8563,-4.08387 0,-0.49501 0.0464,-1.0055 0.13922,-1.53145 l 7.75006,-0.0928 c -0.0619,0.43314 0.18563,0.81987 0.74252,1.16019 0.58784,0.30939 1.43864,0.46408 2.55242,0.46408 1.11378,0 1.91818,-0.10829 2.41319,-0.32485 0.49502,-0.24751 0.74253,-0.69612 0.74253,-1.34582 0,-0.43314 -0.43314,-0.72705 -1.29942,-0.88175 -0.86627,-0.18562 -1.93365,-0.34032 -3.20212,-0.46407 -1.23753,-0.12376 -2.49054,-0.32485 -3.75901,-0.6033 -1.23754,-0.27844 -2.28944,-0.86627 -3.15571,-1.76348 -0.86628,-0.89722 -1.29941,-2.07288 -1.29941,-3.52698 0,-2.81539 1.08284,-4.98108 3.24852,-6.49706 2.19663,-1.51598 5.35234,-2.27397 9.46715,-2.27397 6.34236,0 9.51354,1.84084 9.51354,5.5225 z"
           style="fill:#003e4c;fill-opacity:1;stroke:none;stroke-width:1.93365"
           id="path108" /><path
           d="m 449.23411,393.12969 c 0,0.8044 0.4022,1.2066 1.20659,1.2066 0.83534,0 1.53145,-0.15469 2.08834,-0.46407 l -0.14509,5.1983 c -1.48504,1.2066 -3.24266,1.85564 -5.09896,1.85564 -2.81539,0 -4.64075,-0.6497 -5.47609,-1.94912 -0.52595,-0.83533 -0.78893,-1.74801 -0.78893,-2.73804 0,-0.99003 0.0619,-1.8563 0.18563,-2.59882 l 5.05843,-28.58708 h 7.88928 l -4.87279,27.5197 c -0.0309,0.18563 -0.0464,0.37126 -0.0464,0.55689 z"
           fill="#ffffff"
           id="path109"
           style="fill:#003e4c;fill-opacity:1;stroke:none;stroke-width:1.93365" /><g
           id="g110"
           transform="matrix(1.9336482,0,0,1.9336482,398.40585,343.25719)"><path
             d="m 63.434256,8.755696 c -1.3794,0 -2.498047,1.1186869 -2.498047,2.498047 0,0.317924 0.06356,0.620709 0.171875,0.90039 0.677127,2.291441 3.424322,4.256069 4.392578,4.765625 0.957978,-0.504285 3.656429,-2.43295 4.369141,-4.693359 0.0194,-0.06154 0.03804,-0.12343 0.05469,-0.185547 -0.01351,0.0508 -0.02755,0.101965 -0.04297,0.152344 0.117924,-0.290121 0.185547,-0.606985 0.185547,-0.939453 0,-1.3793701 -1.118647,-2.498047 -2.498047,-2.498047 -0.859613,0 -1.619056,0.434607 -2.06836,1.0957031 C 65.051326,9.1903193 64.293857,8.755696 63.434256,8.755696 Z"
             style="fill:#ff0000"
             id="path110" /></g><path
           d="m 526.88676,394.36372 c 0.71158,0 1.89676,-0.15469 2.58482,-0.41161 l -0.91415,5.19157 c -1.4541,1.20661 -3.1093,1.80991 -4.9656,1.80991 -2.81539,0 -4.64076,-0.64971 -5.4761,-1.94914 -0.55689,-0.86625 -0.83533,-1.77893 -0.83533,-2.73802 0,-0.99005 0.0619,-1.8563 0.18563,-2.59885 l 2.78445,-15.68573 h 7.88929 l -2.59883,14.61838 c -0.0309,0.18563 -0.0464,0.35579 -0.0464,0.51048 0,0.83534 0.46407,1.25301 1.39222,1.25301 z"
           fill="#ffffff"
           id="path111"
           style="fill:#003e4c;fill-opacity:1;stroke:none;stroke-width:1.93365" /><path
           d="m 397.28161,391.05092 c -0.11331,2.07427 1.31796,3.11138 4.29406,3.11138 3.00616,0 4.56012,-0.9319 4.66202,-2.79573 0.0541,-0.99201 -0.41244,-1.80369 -1.39998,-2.43498 -0.98759,-0.6313 -2.20637,-1.15737 -3.65639,-1.57822 -1.41994,-0.42088 -2.85163,-0.90186 -4.29508,-1.44297 -1.41174,-0.57116 -2.5966,-1.44295 -3.55461,-2.61536 -0.95634,-1.20245 -1.38605,-2.69051 -1.28908,-4.46413 0.41247,-7.54548 5.47365,-11.31821 15.18349,-11.31821 3.54728,0 6.18578,0.67639 7.91552,2.02916 1.76144,1.32271 2.83211,3.19927 2.44744,5.54637 -0.27498,1.67781 -0.51984,3.06597 -0.81418,4.7347 h -8.16691 c 0.15002,-0.85052 0.28729,-1.62873 0.47805,-2.61536 0.37146,-1.92133 -1.1174,-2.93101 -3.67258,-2.93101 -3.21659,0 -4.88076,1.02211 -4.99251,3.06629 -0.0559,1.02211 0.4108,1.83376 1.40004,2.43498 0.98922,0.60123 2.19545,1.08223 3.61869,1.44297 1.45488,0.33067 2.9049,0.75153 4.34997,1.26258 1.44508,0.51104 2.64579,1.3678 3.60216,2.57026 0.958,1.17241 1.38524,2.70554 1.28171,4.59943 -0.20871,3.81782 -1.50635,6.65863 -3.89291,8.52246 -2.38493,1.83375 -5.95226,2.75063 -10.70193,2.75063 -4.74972,0 -7.95035,-0.84173 -9.6019,-2.52517 -1.22363,-1.26259 -2.01186,-3.03193 -1.65304,-5.23071 0.20683,-1.26736 0.38862,-2.29802 0.59572,-3.47211 h 8.11662 c -0.0819,0.46419 -0.20738,0.89446 -0.25427,1.35275 z"
           style="fill:#003e4c;fill-opacity:1;stroke:none;stroke-width:1.87885"
           id="path112" /><path
           d="m 429.83482,390.76853 h -5.5225 l -1.80989,10.16325 h -8.35336 l 5.89376,-33.41346 h 14.15431 c 3.49603,0 5.98657,0.8044 7.47161,2.4132 1.08284,1.23753 1.62426,2.81541 1.62426,4.73359 0,0.6497 -0.0619,1.33035 -0.18563,2.04193 l -0.92814,5.24405 c -0.46408,2.56789 -1.82537,4.68717 -4.08387,6.35784 -2.2585,1.63973 -5.01202,2.4596 -8.26055,2.4596 z m 1.43864,-16.01061 h -4.17668 l -1.53145,8.77103 h 4.13027 c 2.53695,0 4.00652,-1.12925 4.40872,-3.38775 l 0.32485,-1.90271 c 0.0619,-0.27845 0.0928,-0.64971 0.0928,-1.11378 0,-0.46408 -0.23204,-0.97456 -0.69612,-1.53145 -0.46407,-0.55689 -1.31488,-0.83534 -2.55241,-0.83534 z"
           style="fill:#003e4c;fill-opacity:1;stroke:none;stroke-width:1.93365"
           id="path113" /><path
           d="m 561.71708,367.54647 -10.62474,16.84277 4.73268,16.56435 h -8.81577 l -3.47991,-12.24927 h -3.6655 l -2.18073,12.24927 h -8.35179 l 5.89265,-33.40712 h 8.35178 l -2.45914,13.91964 h 2.96952 l 8.81576,-13.91964 z"
           style="fill:#003e4c;fill-opacity:1;stroke:none;stroke-width:1.93328"
           id="path114" /><path
           d="m 503.96945,400.91984 c -3.58357,0 -6.16313,-0.80322 -7.73867,-2.40965 -1.17394,-1.17394 -1.76089,-2.74948 -1.76089,-4.72662 0,-0.64875 0.0619,-1.34384 0.18543,-2.08526 l 3.15107,-17.93333 8.4801,-3.52181 -1.34383,7.73869 h 14.2267 l -1.15849,6.53386 h -14.2267 l -0.92678,5.23633 c -0.12356,0.58697 -0.18543,1.11214 -0.18543,1.57554 0,1.94626 0.92677,2.91938 2.78035,2.91938 0.98856,0 1.80723,-0.41706 2.45599,-1.25116 0.67964,-0.83412 1.14303,-1.94626 1.39017,-3.33643 h 7.69232 c -1.29749,7.50696 -5.63793,11.26044 -13.02134,11.26044 z"
           style="fill:#003e4c;fill-opacity:1;stroke:none;stroke-width:1.9308"
           id="path115" /><path
           d="m 472.28337,393.19894 c 0,0.8044 0.40219,1.2066 1.20659,1.2066 0.83534,0 1.53145,-0.1547 2.08834,-0.46408 l -0.0746,5.11288 c -1.48505,1.20659 -3.31313,1.94107 -5.16943,1.94107 -3.40322,0 -5.29046,-1.23754 -5.66172,-3.71261 -1.54692,2.47507 -3.82089,3.71261 -6.82191,3.71261 -5.07389,0 -7.61084,-2.18116 -7.61084,-6.54347 0,-0.74252 0.0773,-1.56238 0.23204,-2.4596 l 0.97455,-5.42968 c 0.49502,-2.78446 1.62427,-4.99655 3.38775,-6.63629 1.79443,-1.67066 4.11481,-2.506 6.96114,-2.506 2.87727,0 4.82639,0.66518 5.84735,1.99552 l 0.23204,-1.39222 h 7.05395 l -2.59883,14.61838 c -0.0309,0.18563 -0.0464,0.37126 -0.0464,0.55689 z m -13.73664,-2.22756 c -0.0619,0.27844 -0.0928,0.66517 -0.0928,1.16018 0,0.49502 0.23203,0.99003 0.69611,1.48505 0.46407,0.46407 1.23753,0.69611 2.32038,0.69611 1.11378,0 2.07287,-0.43314 2.87726,-1.29941 l 1.39223,-7.79647 c -0.34032,-0.77346 -1.14472,-1.16019 -2.41319,-1.16019 -2.38226,0 -3.77448,1.14472 -4.17668,3.43416 z"
           style="fill:#003e4c;fill-opacity:1;stroke:none;stroke-width:1.93365"
           id="path116" /><text
           xml:space="preserve"
           style="font-style:normal;font-variant:normal;font-weight:normal;font-stretch:normal;font-size:27.1018px;font-family:'Alumni Sans';-inkscape-font-specification:'Alumni Sans, @wght=300';font-variant-ligatures:normal;font-variant-caps:normal;font-variant-numeric:normal;font-variant-east-asian:normal;font-variation-settings:'wght' 300;text-align:start;writing-mode:lr-tb;direction:ltr;text-anchor:start;fill:#003e4c;fill-opacity:1;stroke:none;stroke-width:4.51696"
           x="462.1488"
           y="421.535"
           id="text116"
           transform="skewX(-10.107702)"><tspan
             id="tspan116"
             x="462.1488"
             y="421.535"
             style="font-style:normal;font-variant:normal;font-weight:normal;font-stretch:normal;font-size:27.1018px;font-family:'Alumni Sans';-inkscape-font-specification:'Alumni Sans, @wght=300';font-variant-ligatures:normal;font-variant-caps:normal;font-variant-numeric:normal;font-variant-east-asian:normal;font-variation-settings:'wght' 300;fill:#003e4c;fill-opacity:1;stroke-width:4.51696">SPECIAL PLASTIC KITS</tspan></text></g></g></g></svg>
