<?xml version="1.0" encoding="UTF-8" standalone="no"?>
<!-- Created with Inkscape (http://www.inkscape.org/) -->

<svg
   width="160.47513mm"
   height="145.26923mm"
   viewBox="0 0 160.47513 145.26923"
   version="1.1"
   id="svg1"
   xml:space="preserve"
   sodipodi:docname="splastik-logo.svg"
   inkscape:version="1.4 (86a8ad7, 2024-10-11)"
   xmlns:inkscape="http://www.inkscape.org/namespaces/inkscape"
   xmlns:sodipodi="http://sodipodi.sourceforge.net/DTD/sodipodi-0.dtd"
   xmlns="http://www.w3.org/2000/svg"
   xmlns:svg="http://www.w3.org/2000/svg"><sodipodi:namedview
     id="namedview1"
     pagecolor="#ffffff"
     bordercolor="#000000"
     borderopacity="0.25"
     inkscape:showpageshadow="2"
     inkscape:pageopacity="0.0"
     inkscape:pagecheckerboard="0"
     inkscape:deskcolor="#d1d1d1"
     inkscape:document-units="mm"
     inkscape:zoom="2.1254932"
     inkscape:cx="597.74362"
     inkscape:cy="328.15913"
     inkscape:window-width="2560"
     inkscape:window-height="1369"
     inkscape:window-x="1432"
     inkscape:window-y="476"
     inkscape:window-maximized="1"
     inkscape:current-layer="g11" /><defs
     id="defs1" /><g
     id="layer3"
     style="display:inline"
     transform="translate(-24.748996,-110.11666)"><path
       d="m 158.69852,110.1179 c -21.01103,-0.19529 -40.35922,22.76159 -45.90779,29.95941 -2.3637,-0.68759 -4.81544,-1.05988 -7.33341,-1.05988 -2.78679,0 -5.489519,0.46585 -8.083739,1.30328 -5.226076,-6.82008 -24.167051,-29.55087 -44.953845,-30.18782 -0.670542,-0.0206 -1.342946,-0.0179 -2.016931,0.009 -3.608804,0.14302 -7.260896,0.98229 -10.894942,2.71353 -20.821379,9.9192 -16.064696,39.5997 -7.253304,56.37124 6.035009,11.48699 17.305927,23.9229 34.611841,17.81493 1.577899,-0.5569 2.994322,-1.26824 4.272607,-2.09548 0.0018,1.41348 0.05799,2.80971 0.153479,4.19044 -2.391542,0.37461 -4.732183,1.16858 -6.799068,2.50734 -8.389742,5.4342 -12.487754,14.32128 -7.537008,22.03432 3.981865,6.20357 14.709624,7.66196 23.099365,2.22777 6.104729,-3.95415 9.07504,-11.18608 9.251632,-16.60002 12.023563,-3.36521 22.628163,-3.38112 33.011933,0.11627 0.23278,5.41545 3.08372,12.55062 8.87078,16.47393 8.05199,5.45879 18.34816,3.99352 22.16971,-2.23811 4.75145,-7.74796 0.81831,-16.67525 -7.23367,-22.13404 -1.97418,-1.33839 -4.20882,-2.13292 -6.49263,-2.51148 0.0777,-1.15774 0.11095,-2.33204 0.12299,-3.51296 1.03182,0.59057 2.13998,1.11489 3.35019,1.54202 17.30592,6.10797 28.57683,-6.32794 34.61184,-17.81493 8.81139,-16.77154 13.56807,-46.45204 -7.25331,-56.37124 -3.92791,-1.87123 -7.87579,-2.70113 -11.76672,-2.7373 z"
       style="display:inline;opacity:1;fill:#312800;fill-opacity:1;stroke:none;stroke-width:0.529167"
       id="path14" /></g><g
     id="layer2"
     style="display:inline"
     transform="translate(-24.748996,-110.11666)"><path
       d="m 157.7115,113.6505 c -15.21164,0.64225 -32.58855,16.62799 -40.75824,27.88667 4.05442,1.84586 7.73893,4.62582 10.89805,8.15093 2.28365,-0.74171 5.19819,-2.1784 7.92406,-5.01675 l 0.35347,0.35036 c -2.70101,3.39855 -3.80928,7.02968 -4.15944,10.14047 4.00171,6.38292 6.55843,14.23288 7.07967,22.81101 3.98056,4.21043 10.16287,7.0964 19.56418,3.72381 16.49274,-5.91655 29.70659,-46.09989 13.61571,-62.35227 -4.25421,-4.29691 -9.2522,-5.91653 -14.51746,-5.69423 z"
       style="opacity:1;fill:#ffffff;fill-opacity:1;stroke:none;stroke-width:0.529167"
       id="path7" /><path
       d="m 52.01511,113.94041 c -3.221992,-0.0215 -6.472254,0.61467 -9.692432,2.09599 -22.652382,10.42036 -12.641251,70.08976 19.326469,67.50493 13.568768,-1.09714 21.746342,-28.3302 12.627136,-38.17132 l 0.419096,-0.33021 c 4.524111,4.00141 8.634736,6.66623 13.851868,5.60328 -7.707894,7.35875 -12.760464,19.63103 -12.760462,33.53542 -4e-6,3.91984 0.465644,7.02245 1.150834,9.56996 l -0.49506,0.37465 c -3.373598,-0.91969 -7.371287,-0.36407 -10.936283,1.85157 -5.882119,3.65572 -7.819419,10.311 -4.327385,14.86472 3.492033,4.55373 9.708306,5.17489 15.824357,1.27124 5.952093,-3.79905 8.994129,-13.30458 5.355746,-13.81104 l -0.03876,-0.10594 c 6.503182,-2.57172 14.784177,-4.08233 23.432676,-3.87676 9.46439,0.22495 16.90901,0.50723 25.87233,5.5516 l -1.0201,1.68723 c -1.35795,-1.43542 -2.93931,-2.06631 -3.49591,-1.49086 -0.86219,0.89141 0.34363,8.02455 6.29574,11.82356 6.11605,3.90365 11.79142,3.60001 15.6652,-0.9219 3.73339,-4.35804 1.77746,-11.33614 -4.10466,-14.99185 -2.30348,-1.43161 -4.78739,-2.17015 -7.16701,-2.2655 -1.59644,-0.064 -3.68922,1.03056 -4.80435,3.03341 l -0.41807,-0.26355 c 1.4784,-2.90412 2.35593,-6.76093 2.35593,-12.30054 0,-22.51684 -13.2405,-40.77064 -29.57287,-40.77064 -3.52532,0 -6.905099,0.85465 -10.040217,2.41484 -1.961913,-2.91569 -21.875435,-31.73932 -43.303816,-31.88229 z"
       style="opacity:1;fill:#ffffff;fill-opacity:1;stroke:none;stroke-width:0.530444"
       id="path8" /><path
       id="path15"
       style="display:inline;fill:#312800;fill-opacity:1;stroke:none;stroke-width:0.545151;stroke-dasharray:none;stroke-opacity:1"
       d="m 116.93725,166.15802 a 8.3168101,9.5374641 0 0 0 -8.31681,9.53712 8.3168101,9.5374641 0 0 0 8.31681,9.53756 8.3168101,9.5374641 0 0 0 8.3168,-9.53756 8.3168101,9.5374641 0 0 0 -8.3168,-9.53712 z m 0,2.71048 a 5.9529747,6.82669 0 0 1 5.95332,6.82664 5.9529747,6.82669 0 0 1 -5.95332,6.82707 5.9529747,6.82669 0 0 1 -1.45094,-0.22026 4.0095409,6.8612688 0 0 0 2.94326,-6.60681 4.0095409,6.8612688 0 0 0 -2.93507,-6.60852 5.9529747,6.82669 0 0 1 1.44275,-0.21812 z" /></g><g
     id="layer4"
     style="display:inline"
     transform="translate(-24.748996,-80.930834)"><path
       d="m 52.01511,84.754583 c -3.221992,-0.0215 -6.472254,0.61467 -9.692432,2.09599 -22.652382,10.42036 -12.648486,70.095957 19.319234,67.511127 4.641724,-0.37532 8.816094,-4.01828 11.433086,-8.35459 -5.877375,4.91477 -19.712434,4.24245 -26.313831,-9.65672 -5.002941,-10.53364 -7.335057,-36.648647 8.525578,-42.119387 14.313506,-4.9371 34.418968,18.178967 38.664306,23.315887 -1.866562,1.04223 -3.705538,2.337 -5.45083,3.91811 0.01586,-0.003 0.03114,-0.005 0.04703,-0.008 -4.133744,3.94649 -7.499824,9.32141 -9.736357,15.58819 -1.933769,5.41843 -3.031341,11.50596 -3.03134,17.95343 -4e-6,3.745 0.431668,6.72808 1.067119,9.20977 0.02966,0.11586 0.05315,0.24656 0.08371,0.36019 l -0.03721,0.0274 -0.450619,0.34106 c -3.373598,-0.91969 -7.371287,-0.36407 -10.936283,1.85157 -5.882119,3.65572 -7.819419,10.311 -4.327385,14.86472 3.492033,4.55373 9.708306,5.17489 15.824357,1.27124 5.952093,-3.79905 8.994129,-13.30458 5.355746,-13.81104 l -0.03876,-0.10594 c 6.503182,-2.57172 14.784182,-4.08233 23.432681,-3.87676 7.61359,0.18096 13.92981,0.44375 20.77135,3.14812 -9.58666,-9.63924 -35.888777,-9.17153 -35.888777,-9.17153 -9.627802,-21.36523 2.842544,-36.7793 12.221997,-44.7027 0.015,-0.0127 0.0305,-0.0266 0.0455,-0.0393 -2.64147,0.30073 -5.184719,1.07716 -7.584042,2.27118 C 93.357025,113.72091 73.443503,84.897283 52.015122,84.754313 Z"
       style="display:inline;fill:#f0f0f0;fill-opacity:1;stroke:none;stroke-width:0.530444;stroke-opacity:1"
       id="path19" /><path
       d="m 135.21627,187.0186 c -1.59344,0 -2.88566,1.29227 -2.88566,2.88566 0,0.36726 0.0734,0.71702 0.19854,1.0401 0.7822,2.647 3.95566,4.91647 5.07416,5.50509 1.10662,-0.58253 4.22378,-2.81046 5.04708,-5.42161 0.0224,-0.0711 0.0439,-0.14258 0.0632,-0.21434 -0.0156,0.0587 -0.0318,0.11779 -0.0496,0.17599 0.13622,-0.33514 0.21434,-0.70117 0.21434,-1.08523 0,-1.5934 -1.29222,-2.88566 -2.88566,-2.88566 -0.993,0 -1.87028,0.50205 -2.3893,1.26572 -0.51906,-0.76366 -1.39406,-1.26572 -2.38704,-1.26572 z"
       style="fill:#ff0000;stroke-width:1.15517"
       id="path8-1" /><g
       id="g11"
       style="fill:#312800;fill-opacity:1"><path
         d="m 118.97149,200.52166 c 0,0.60993 -0.18482,1.17366 -0.55447,1.69117 h -4.54674 c 0.14787,-0.1109 0.22179,-0.29573 0.22179,-0.55448 0,-0.25876 -0.14785,-0.46207 -0.44358,-0.60993 -0.29572,-0.16635 -0.67462,-0.24952 -1.13668,-0.24952 -1.3862,0 -2.0793,0.42511 -2.0793,1.2753 0,0.33269 0.25875,0.57297 0.77627,0.72083 0.51751,0.14786 1.14593,0.268 1.88523,0.36041 0.73931,0.0924 1.47861,0.23104 2.21792,0.41586 0.73931,0.16635 1.36772,0.50828 1.88523,1.02579 0.51751,0.51752 0.77627,1.21061 0.77627,2.0793 0,1.53406 -0.61916,2.69847 -1.8575,3.49322 -1.21986,0.79475 -3.00344,1.19214 -5.35073,1.19214 -2.3473,0 -3.99226,-0.3789 -4.93487,-1.13669 -0.73931,-0.59144 -1.10896,-1.40468 -1.10896,-2.43971 0,-0.29572 0.0277,-0.60069 0.0832,-0.91489 l 4.6299,-0.0554 c 0,0.30718 0.20917,0.55776 0.44359,0.6931 0.35117,0.18483 0.85944,0.27724 1.52482,0.27724 0.66537,0 1.14592,-0.0647 1.44164,-0.19407 0.29573,-0.14786 0.44359,-0.41586 0.44359,-0.80399 0,-0.25876 -0.25875,-0.43434 -0.77627,-0.52676 -0.51751,-0.11089 -1.15517,-0.20331 -1.91296,-0.27724 -0.7393,-0.0739 -1.48785,-0.19406 -2.24564,-0.36041 -0.73931,-0.16634 -1.36772,-0.51751 -1.88523,-1.05351 -0.51752,-0.536 -0.77627,-1.23834 -0.77627,-2.10702 0,-1.68192 0.64689,-2.97572 1.94068,-3.88136 1.31227,-0.90565 3.1975,-1.35848 5.65569,-1.35848 3.78894,0 5.68341,1.09972 5.68341,3.29915 z"
         style="fill:#312800;fill-opacity:1;stroke:none;stroke-width:1.15517"
         id="path2" /><path
         d="m 87.717814,206.63502 c 0,0.48055 0.240275,0.72083 0.720822,0.72083 0.499032,0 0.91489,-0.0924 1.247577,-0.27724 l -0.08668,3.10548 c -0.887163,0.72082 -1.937171,1.10856 -3.04613,1.10856 -1.681918,0 -2.772395,-0.38813 -3.271427,-1.16441 -0.314205,-0.49903 -0.471309,-1.04426 -0.471309,-1.63571 0,-0.59145 0.03698,-1.10896 0.110895,-1.55254 L 85.943481,189.862 h 4.713076 l -2.911016,16.44033 c -0.01846,0.1109 -0.02771,0.22179 -0.02771,0.33269 z"
         fill="#ffffff"
         id="path6"
         style="fill:#312800;fill-opacity:1;stroke:none;stroke-width:1.15517" /><path
         d="m 138.69397,207.43549 c 0.4251,0 1.13313,-0.0924 1.54418,-0.2459 l -0.54612,3.10146 c -0.86868,0.72083 -1.8575,1.08124 -2.96646,1.08124 -1.68192,0 -2.7724,-0.38814 -3.27143,-1.16442 -0.33269,-0.5175 -0.49903,-1.06274 -0.49903,-1.6357 0,-0.59146 0.037,-1.10896 0.1109,-1.55256 l 1.66343,-9.37069 h 4.71308 l -1.55254,8.73305 c -0.0185,0.1109 -0.0277,0.21255 -0.0277,0.30497 0,0.49903 0.27723,0.74855 0.83171,0.74855 z"
         fill="#ffffff"
         id="path9"
         style="fill:#312800;fill-opacity:1;stroke:none;stroke-width:1.15517" /><path
         d="m 56.00624,205.39316 c -0.06769,1.23917 0.787353,1.85874 2.565281,1.85874 1.795887,0 2.724227,-0.55672 2.785101,-1.67017 0.03233,-0.59263 -0.246394,-1.07753 -0.83635,-1.45467 -0.589989,-0.37713 -1.318091,-0.69141 -2.184338,-0.94283 -0.848275,-0.25143 -1.70357,-0.53877 -2.565892,-0.86203 -0.843373,-0.34121 -1.551214,-0.86202 -2.123531,-1.56242 -0.571318,-0.71835 -0.82803,-1.60732 -0.770099,-2.66688 0.246411,-4.50769 3.269972,-6.76153 9.070652,-6.76153 2.119154,0 3.695402,0.40407 4.728751,1.21222 1.05229,0.79019 1.691911,1.91125 1.462106,3.31342 -0.164273,1.00233 -0.310552,1.83161 -0.486392,2.82852 h -4.878932 c 0.08962,-0.5081 0.171627,-0.97301 0.28559,-1.56242 0.221911,-1.14781 -0.667538,-1.751 -2.194008,-1.751 -1.921599,0 -2.915779,0.61062 -2.98254,1.83181 -0.03338,0.61062 0.245416,1.0955 0.836388,1.45467 0.590965,0.35917 1.311567,0.64652 2.161816,0.86203 0.869146,0.19754 1.735394,0.44896 2.598681,0.75427 0.863294,0.3053 1.580602,0.81713 2.15194,1.53548 0.572311,0.7004 0.827544,1.6163 0.765694,2.74771 -0.124682,2.28077 -0.899894,3.97788 -2.325633,5.09134 -1.424763,1.09548 -3.555893,1.64323 -6.393357,1.64323 -2.837494,0 -4.749558,-0.50285 -5.736198,-1.50854 -0.731001,-0.75428 -1.201891,-1.81128 -0.98753,-3.12484 0.123561,-0.75713 0.232161,-1.37285 0.355884,-2.07425 h 4.84889 c -0.04893,0.27731 -0.123892,0.53435 -0.151903,0.80814 z"
         style="fill:#312800;fill-opacity:1;stroke:none;stroke-width:1.12243"
         id="path18" /><path
         d="m 75.791117,205.22446 h -3.299153 l -1.081232,6.07155 h -4.990316 l 3.520946,-19.96128 h 8.455818 c 2.088535,0 3.57639,0.48055 4.463557,1.44165 0.646891,0.7393 0.970337,1.68193 0.970337,2.82786 0,0.38813 -0.03698,0.79475 -0.110898,1.21985 l -0.554472,3.13281 c -0.27724,1.53406 -1.090481,2.80013 -2.439715,3.79819 -1.34923,0.97958 -2.99419,1.46937 -4.934872,1.46937 z m 0.85945,-9.56478 h -2.495161 l -0.91489,5.23983 h 2.467434 c 1.515579,0 2.393505,-0.67461 2.633779,-2.02384 l 0.194066,-1.13669 c 0.03698,-0.16635 0.05544,-0.38814 0.05544,-0.66538 0,-0.27723 -0.138622,-0.5822 -0.415861,-0.91489 -0.277237,-0.33268 -0.785514,-0.49903 -1.524817,-0.49903 z"
         style="fill:#312800;fill-opacity:1;stroke:none;stroke-width:1.15517"
         id="path19-8" /><path
         d="m 159.92299,191.4148 -6.34724,10.06191 2.82731,9.89559 h -5.26656 l -2.07891,-7.31775 h -2.18978 l -1.30277,7.31775 h -4.98938 l 3.52029,-19.9575 h 4.98937 l -1.4691,8.31563 h 1.774 l 5.26656,-8.31563 z"
         style="fill:#312800;fill-opacity:1;stroke:none;stroke-width:1.15495"
         id="path20" /><path
         d="m 124.64655,211.36175 c -2.14083,0 -3.68186,-0.47985 -4.62309,-1.43953 -0.70132,-0.70132 -1.05197,-1.64255 -1.05197,-2.8237 0,-0.38756 0.037,-0.80281 0.11078,-1.24574 l 1.88246,-10.71341 5.06603,-2.10394 -0.80281,4.62311 h 5.79527 l -0.69208,3.90334 h -5.79527 l -0.55366,3.1282 c -0.0738,0.35066 -0.11078,0.66439 -0.11078,0.94123 0,1.1627 0.55365,1.74405 1.66099,1.74405 0.59057,0 1.07964,-0.24915 1.46721,-0.74745 0.40602,-0.4983 0.68285,-1.1627 0.83049,-1.99319 h 4.59542 c -0.77513,4.48467 -3.36812,6.72701 -7.77899,6.72701 z"
         style="fill:#312800;fill-opacity:1;stroke:none;stroke-width:1.15346"
         id="path21" /><path
         d="m 104.2963,206.86769 c 0.49904,0 0.78628,0.01 1.24759,0.006 l 0.19035,3.16025 c -0.88718,0.72082 -2.23653,1.29992 -3.34548,1.29992 -2.0331,0 -3.160539,-0.73931 -3.382328,-2.21792 -0.924135,1.47861 -2.28261,2.21792 -4.075426,2.21792 -3.031155,0 -4.546734,-1.30303 -4.546734,-3.90909 0,-0.44358 0.04618,-0.93337 0.138621,-1.46937 l 0.582197,-3.2437 c 0.295725,-1.66344 0.970344,-2.98495 2.023849,-3.96454 1.071998,-0.99805 2.4582,-1.49709 4.158604,-1.49709 1.718889,0 2.883297,0.39738 3.493217,1.19213 l 0.13862,-0.83172 h 4.21405 l -1.53017,8.20354 c -0.0185,0.11089 -0.0184,0.22218 -0.0277,0.33268 -0.0264,0.31243 0.0178,0.72083 0.7208,0.72083 z m -8.949489,-1.52205 c -0.03698,0.16634 -0.05544,0.39737 -0.05544,0.69309 0,0.29573 0.138614,0.59145 0.415854,0.88718 0.27724,0.27723 0.739304,0.41585 1.386202,0.41585 0.665374,0 1.238336,-0.25875 1.718883,-0.77626 l 0.831719,-4.65764 c -0.203306,-0.46206 -0.683856,-0.69309 -1.441643,-0.69309 -1.42317,0 -2.254883,0.68385 -2.495161,2.05157 z"
         style="fill:#312800;fill-opacity:1;stroke:none;stroke-width:1.15517"
         id="path22" /></g></g></svg>
