<?xml version="1.0" encoding="UTF-8" standalone="no"?>
<svg
   width="324.14249"
   height="116.08734"
   viewBox="0 0 324.14249 116.08734"
   fill="none"
   version="1.1"
   id="svg6"
   xml:space="preserve"
   xmlns="http://www.w3.org/2000/svg"
   xmlns:svg="http://www.w3.org/2000/svg"><defs
     id="defs6" /><g
     id="g43"
     transform="translate(697.27809,447.89767)"><path
       d="m -494.46732,-407.89062 c 0,1.80709 -0.5476,3.47731 -1.64281,5.0106 h -13.47113 c 0.43809,-0.32856 0.65712,-0.87617 0.65712,-1.64282 0,-0.76665 -0.43807,-1.36902 -1.31425,-1.80711 -0.87617,-0.49284 -1.99877,-0.73927 -3.36778,-0.73927 -4.10706,0 -6.16057,1.25951 -6.16057,3.77849 0,0.98569 0.76664,1.69758 2.29995,2.13567 1.53329,0.43809 3.39516,0.79404 5.58558,1.06784 2.19044,0.2738 4.38086,0.68451 6.57129,1.23211 2.19042,0.49285 4.05229,1.50593 5.58558,3.03922 1.5333,1.53331 2.29995,3.58682 2.29995,6.16058 0,4.54513 -1.83447,7.99506 -5.50344,10.34976 -3.61422,2.35471 -8.89862,3.53208 -15.85322,3.53208 -6.95462,0 -11.82831,-1.1226 -14.62111,-3.36778 -2.19042,-1.75235 -3.28563,-4.16182 -3.28563,-7.22842 0,-0.87617 0.0821,-1.77973 0.24641,-2.71066 l 13.71755,-0.16425 c 0,0.91011 0.61971,1.65253 1.31426,2.05352 1.04047,0.54762 2.54638,0.82142 4.51776,0.82142 1.97138,0 3.39516,-0.19167 4.27133,-0.57498 0.87618,-0.43809 1.31427,-1.23213 1.31427,-2.38209 0,-0.76666 -0.76665,-1.28687 -2.29996,-1.56069 -1.53329,-0.32855 -3.42255,-0.60237 -5.66773,-0.8214 -2.19042,-0.21906 -4.40824,-0.57498 -6.65342,-1.06784 -2.19044,-0.49284 -4.05229,-1.53329 -5.58558,-3.12135 -1.53331,-1.58807 -2.29995,-3.66898 -2.29995,-6.24272 0,-4.98322 1.91662,-8.81648 5.74986,-11.49975 3.88802,-2.68327 9.4736,-4.02491 16.75678,-4.02491 11.22593,0 16.83889,3.25827 16.83889,9.77478 z"
       style="fill:#ffffff;fill-opacity:1;stroke:none;stroke-width:3.42255"
       id="path2" /><path
       d="m -587.06617,-389.77788 c 0,1.42378 0.71189,2.13567 2.13566,2.13567 1.47854,0 2.71065,-0.2738 3.69634,-0.8214 l -0.25681,9.20095 c -2.6285,2.13567 -5.73948,3.28447 -9.02512,3.28447 -4.98321,0 -8.21409,-1.14996 -9.69263,-3.44993 -0.93093,-1.47853 -1.3964,-3.09396 -1.3964,-4.84631 0,-1.75234 0.10956,-3.28563 0.32856,-4.59989 l 8.95338,-50.59891 h 13.96397 l -8.6248,48.70966 c -0.0547,0.32856 -0.0821,0.65712 -0.0821,0.98569 z"
       fill="#ffffff"
       id="path6"
       style="fill:#ffffff;fill-opacity:1;stroke:none;stroke-width:3.42255" /><g
       id="g1"
       transform="matrix(1.7699924,0,0,1.7699924,-1371.9986,-847.42704)"><g
         id="g8"
         transform="matrix(1.9336482,0,0,1.9336482,400.31533,208.79334)"><path
           d="m 63.434256,8.755696 c -1.3794,0 -2.498047,1.1186869 -2.498047,2.498047 0,0.317924 0.06356,0.620709 0.171875,0.90039 0.677127,2.291441 3.424322,4.256069 4.392578,4.765625 0.957978,-0.504285 3.656429,-2.43295 4.369141,-4.693359 0.0194,-0.06154 0.03804,-0.12343 0.05469,-0.185547 -0.01351,0.0508 -0.02755,0.101965 -0.04297,0.152344 0.117924,-0.290121 0.185547,-0.606985 0.185547,-0.939453 0,-1.3793701 -1.118647,-2.498047 -2.498047,-2.498047 -0.859613,0 -1.619056,0.434607 -2.06836,1.0957031 C 65.051326,9.1903193 64.293857,8.755696 63.434256,8.755696 Z"
           style="fill:#ff0000"
           id="path8" /></g><path
         d="m 528.79624,259.89987 c 0.71158,0 1.89676,-0.15469 2.58482,-0.41161 l -0.91415,5.19157 c -1.4541,1.20661 -3.1093,1.80991 -4.9656,1.80991 -2.81539,0 -4.64076,-0.64971 -5.4761,-1.94914 -0.55689,-0.86625 -0.83533,-1.77893 -0.83533,-2.73802 0,-0.99005 0.0619,-1.8563 0.18563,-2.59885 l 2.78445,-15.68573 h 7.88929 l -2.59883,14.61838 c -0.0309,0.18563 -0.0464,0.35579 -0.0464,0.51048 0,0.83534 0.46407,1.25301 1.39222,1.25301 z"
         fill="#ffffff"
         id="path9"
         style="fill:#ffffff;fill-opacity:1;stroke:none;stroke-width:1.93365" /></g><path
       d="m -681.02168,-393.45729 c -0.20056,3.67144 2.33278,5.50712 7.60045,5.50712 5.32088,0 8.07138,-1.64946 8.25174,-4.94842 0.0958,-1.75585 -0.73002,-3.19252 -2.47795,-4.3099 -1.74803,-1.11739 -3.90526,-2.04853 -6.47179,-2.79344 -2.51328,-0.74495 -5.04736,-1.59628 -7.60226,-2.55404 -2.49876,-1.01095 -4.59596,-2.55401 -6.29163,-4.62917 -1.69271,-2.12833 -2.4533,-4.76218 -2.28166,-7.90147 0.73007,-13.35545 9.68832,-20.03315 26.87466,-20.03315 6.27866,0 10.94879,1.1972 14.01041,3.5916 3.11774,2.34118 5.01282,5.66268 4.33195,9.81703 -0.48671,2.96971 -0.92011,5.42674 -1.44109,8.38038 h -14.45537 c 0.26554,-1.50541 0.5085,-2.88284 0.84615,-4.62916 0.65748,-3.40074 -1.97779,-5.18787 -6.50044,-5.18787 -5.69334,0 -8.63891,1.80913 -8.83671,5.42731 -0.0989,1.80913 0.72712,3.24574 2.47806,4.3099 1.75092,1.06417 3.88593,1.91554 6.40506,2.55404 2.57512,0.58529 5.14165,1.3302 7.69941,2.23476 2.55778,0.90454 4.68303,2.421 6.3758,4.54934 1.69565,2.07516 2.45186,4.78879 2.26861,8.14096 -0.36941,6.75751 -2.66622,11.78572 -6.89042,15.08469 -4.22131,3.24572 -10.53545,4.86859 -18.94233,4.86859 -8.40697,0 -14.07206,-1.48986 -16.99529,-4.46953 -2.16582,-2.23478 -3.56098,-5.36649 -2.92587,-9.25832 0.36609,-2.24322 0.68785,-4.06748 1.05442,-6.14561 h 14.36636 c -0.14497,0.82162 -0.36707,1.58319 -0.45006,2.39436 z"
       style="fill:#ffffff;fill-opacity:1;stroke:none;stroke-width:3.32555"
       id="path18" /><path
       d="m -622.40276,-393.95712 h -9.77478 l -3.20349,17.98888 h -14.78538 l 10.43191,-59.14157 h 25.05302 c 6.18794,0 10.59618,1.42378 13.22469,4.27134 1.91662,2.19042 2.87493,4.98326 2.87493,8.37842 0,1.14997 -0.10956,2.35471 -0.32857,3.6142 l -1.6428,9.28193 c -0.82141,4.54515 -3.23089,8.29626 -7.22842,11.25333 -3.99752,2.90231 -8.87123,4.35347 -14.62111,4.35347 z m 2.54639,-28.33866 h -7.3927 l -2.71065,15.52466 h 7.31055 c 4.49038,0 7.09151,-1.99876 7.8034,-5.99629 l 0.57498,-3.36778 c 0.10956,-0.49286 0.16425,-1.14999 0.16425,-1.97139 0,-0.82141 -0.41071,-1.72496 -1.23212,-2.71065 -0.8214,-0.98569 -2.32733,-1.47855 -4.51775,-1.47855 z"
       style="fill:#ffffff;fill-opacity:1;stroke:none;stroke-width:3.42255"
       id="path19" /><path
       d="m -373.13563,-434.87256 -18.80571,29.81157 8.37681,29.31878 h -15.60385 l -6.15941,-21.68112 h -6.48791 l -3.85987,21.68112 h -14.78261 l 10.42995,-59.13035 h 14.78258 l -4.35265,24.63765 h 5.25602 l 15.60383,-24.63765 z"
       style="fill:#ffffff;fill-opacity:1;stroke:none;stroke-width:3.42189"
       id="path20" /><path
       d="m -477.65317,-375.77347 c -6.34289,0 -10.90869,-1.4217 -13.69738,-4.26506 -2.07787,-2.07787 -3.11677,-4.86656 -3.11677,-8.36609 0,-1.14828 0.10957,-2.37858 0.32821,-3.69089 l 5.57737,-31.74186 15.00972,-6.23358 -2.37857,13.69743 h 17.1703 l -2.05051,11.56488 h -17.17031 l -1.6404,9.26826 c -0.2187,1.03894 -0.3282,1.96848 -0.3282,2.7887 0,3.44486 1.64037,5.16728 4.92119,5.16728 1.74975,0 3.19879,-0.73819 4.34709,-2.21455 1.20295,-1.47638 2.02315,-3.44486 2.46059,-5.90545 h 13.61535 c -2.29655,13.28726 -9.9791,19.93089 -23.04768,19.93089 z"
       style="fill:#ffffff;fill-opacity:1;stroke:none;stroke-width:3.4175"
       id="path21" /><path
       d="m -537.94718,-389.08852 c 1.47855,0 2.71066,0.56586 3.69635,0.0182 l -0.19833,9.77896 c -2.62853,2.13565 -5.86422,3.43568 -9.14985,3.43568 -6.02368,0 -9.36408,-2.19044 -10.0212,-6.57129 -2.73804,4.38085 -6.76295,6.57129 -12.07473,6.57129 -8.98075,0 -13.47113,-3.86064 -13.47113,-11.5819 0,-1.31425 0.13682,-2.7654 0.41071,-4.35347 l 1.72494,-9.61049 c 0.87618,-4.92847 2.87495,-8.84386 5.99629,-11.74618 3.17613,-2.95706 7.28319,-4.43561 12.32117,-4.43561 5.09275,0 8.54267,1.17737 10.34976,3.53206 l 0.41071,-2.46422 h 12.48544 l -4.53362,24.30554 c -0.0547,0.32856 -0.0545,0.65829 -0.0821,0.98569 -0.0782,0.92565 0.0526,2.13567 2.13562,2.13567 z m -26.51569,-4.50955 c -0.10956,0.49283 -0.16425,1.17734 -0.16425,2.0535 0,0.87619 0.41069,1.75235 1.2321,2.62853 0.82141,0.8214 2.19042,1.23211 4.10706,1.23211 1.97138,0 3.66896,-0.76665 5.09273,-2.29994 l 2.46423,-13.7997 c -0.60236,-1.36902 -2.02614,-2.05352 -4.27132,-2.05352 -4.21659,0 -6.6808,2.02614 -7.3927,6.07843 z"
       style="fill:#ffffff;fill-opacity:1;stroke:none;stroke-width:3.42255"
       id="path22" /><text
       xml:space="preserve"
       style="font-style:normal;font-variant:normal;font-weight:normal;font-stretch:normal;font-size:50.6189px;font-family:'Alumni Sans';-inkscape-font-specification:'Alumni Sans, @wght=300';font-variant-ligatures:normal;font-variant-caps:normal;font-variant-numeric:normal;font-variant-east-asian:normal;font-variation-settings:'wght' 300;text-align:start;writing-mode:lr-tb;direction:ltr;text-anchor:start;fill:#ffffff;fill-opacity:1;stroke:none;stroke-width:8.43649"
       x="-758.55804"
       y="-332.41776"
       id="text22"
       transform="skewX(-10.107702)"><tspan
         id="tspan22"
         x="-758.55804"
         y="-332.41776"
         style="font-style:normal;font-variant:normal;font-weight:normal;font-stretch:normal;font-size:50.6189px;font-family:'Alumni Sans';-inkscape-font-specification:'Alumni Sans, @wght=300';font-variant-ligatures:normal;font-variant-caps:normal;font-variant-numeric:normal;font-variant-east-asian:normal;font-variation-settings:'wght' 300;fill:#ffffff;fill-opacity:1;stroke-width:8.43649">SPECIAL PLASTIC KITS</tspan></text></g></svg>
